<svg width="20" height="20" viewBox="0 0 20 20" fill="none" xmlns="http://www.w3.org/2000/svg">
<g clip-path="url(#clip0_313_16)">
<path d="M14.4687 0.585938C14.3671 0.640626 13.0156 1.42188 11.4765 2.30469C8.45308 4.0625 3.24996 7.05469 1.87496 7.85156C1.40621 8.125 0.976521 8.39844 0.914021 8.46094C0.742146 8.64844 0.734334 8.82031 0.882771 9.11719L1.00777 9.36719L1.21871 9.20313L1.42183 9.03906L1.35152 8.91406L1.28121 8.79688L2.29683 8.21094C3.07027 7.76563 3.32027 7.64063 3.34371 7.67969C3.3984 7.75781 3.53902 8.14844 3.56246 8.28125C3.57808 8.36719 3.60152 8.38281 3.66402 8.36719C3.79683 8.32813 5.24215 8.34375 5.60152 8.39063C6.13277 8.46094 6.74996 8.59375 7.03121 8.69531C7.17183 8.75 7.28902 8.78125 7.28902 8.78125C7.28902 8.78125 7.24996 8.59375 7.19527 8.375C7.05465 7.8125 7.04683 7.05469 7.17183 6.59375C7.47652 5.54688 8.18746 4.94531 9.16402 4.9375C9.57808 4.9375 9.87496 4.99219 10.2734 5.15625C11.2343 5.5625 12.1406 6.53125 12.5781 7.61719C12.8203 8.21875 12.8984 8.625 12.9062 9.25C12.9062 9.5625 12.914 9.82031 12.9218 9.82031C12.9218 9.82031 13.0625 9.78125 13.2187 9.74219C13.9531 9.53906 15.5156 9.45313 16.3671 9.57813L16.7265 9.63281L17.8906 8.96094C18.5546 8.57813 19.0859 8.24219 19.1328 8.17969C19.1875 8.10938 19.2109 8.01563 19.2109 7.89063C19.2109 7.71875 19.0546 7.44531 17.1796 4.19531C15.9453 2.0625 15.1093 0.656251 15.0468 0.617188C14.8906 0.476563 14.6875 0.476563 14.4687 0.585938ZM15.3515 2.03906C15.664 2.57031 15.914 3.02344 15.914 3.03125C15.914 3.04688 15.8281 3.09375 15.7187 3.14063C14.6875 3.58594 13.5312 3.27344 12.875 2.38281C12.7968 2.27344 12.7421 2.17188 12.7656 2.16406C12.789 2.15625 13.2421 1.89063 13.7734 1.57813C14.3046 1.26563 14.7578 1.02344 14.7734 1.03125C14.7812 1.05469 15.0468 1.5 15.3515 2.03906ZM14.6796 4.60156C14.9921 4.69531 15.3203 5.03125 15.414 5.35156C15.6953 6.30469 14.7187 7.13281 13.8359 6.71094C13.4218 6.50781 13.1953 6.13281 13.1953 5.67188C13.1953 5.32813 13.3203 5.0625 13.5859 4.82813C13.8906 4.55469 14.2734 4.47656 14.6796 4.60156ZM18.125 6.83594C18.4296 7.36719 18.6875 7.82813 18.6875 7.85156C18.6875 7.89063 16.7734 9.01563 16.7109 9.01563C16.6875 9.01563 16.6328 8.91406 16.5781 8.78906C16.2187 7.97656 16.3828 6.99219 16.9843 6.3125C17.1484 6.13281 17.539 5.82813 17.5625 5.85938C17.5546 5.85938 17.8125 6.30469 18.125 6.83594Z" fill="#EFF0F4"/>
<path d="M8.52348 5.84375C8.40629 5.9375 8.39067 6.09375 8.48442 6.22656C8.54692 6.3125 8.53911 6.32031 8.44536 6.39063C8.31254 6.5 8.12504 6.80469 8.03911 7.05469C7.82817 7.71094 8.22661 8.53906 8.85161 8.74219C9.15629 8.84375 9.63286 8.82813 10.2032 8.70313C10.7891 8.57813 10.9688 8.59375 11.1641 8.78125C11.6094 9.22656 11.211 10 10.5313 10.0078C10.3204 10.0156 10.1485 9.9375 9.91411 9.75781C9.71879 9.60938 9.59379 9.58594 9.42192 9.66406C9.05473 9.84375 9.09379 10.2578 9.50786 10.5234C9.89067 10.7656 10.3907 10.8203 10.8282 10.6641C10.9297 10.6328 11.0079 10.6172 11.0157 10.6406C11.0625 10.7734 11.1954 10.875 11.3204 10.875C11.5391 10.875 11.6407 10.6562 11.5235 10.4453C11.4766 10.3594 11.4844 10.3359 11.6875 10.1328C12 9.82031 12.1172 9.54688 12.1172 9.125C12.1172 8.82031 12.1016 8.75781 11.9922 8.52344C11.75 8.03125 11.3594 7.77344 10.8516 7.77344C10.7422 7.77344 10.3907 7.82813 10.0704 7.89844C9.43754 8.03906 9.30473 8.03125 9.07817 7.88281C8.86723 7.74219 8.76567 7.55469 8.76567 7.32031C8.76567 7.0625 8.89067 6.83594 9.10161 6.71094C9.39067 6.54688 9.65629 6.60938 9.97661 6.89844C10.1172 7.03125 10.1954 7.07031 10.2891 7.07031C10.5782 7.07031 10.7969 6.78125 10.711 6.51563C10.5782 6.11719 9.75004 5.82812 9.17973 5.98438C9.01567 6.03125 8.99223 6.03125 8.96098 5.96875C8.89067 5.84375 8.77348 5.75 8.69536 5.75C8.65629 5.76563 8.57817 5.79688 8.52348 5.84375Z" fill="#EFF0F4"/>
<path d="M3.60927 8.93752C2.20302 9.11721 1.37489 9.54689 1.30458 10.1328C1.28895 10.25 1.28114 11.8906 1.28895 13.7891C1.30458 16.9453 1.30458 17.25 1.36708 17.3594C1.52333 17.6406 1.9452 17.8985 2.53895 18.0703C3.18739 18.2578 3.5702 18.3047 4.55458 18.3047C5.60927 18.3047 6.08583 18.25 6.7577 18.0235C7.39052 17.8125 7.73427 17.5547 7.8202 17.2266C7.8827 17.0235 7.8827 10.1953 7.8202 9.99221C7.6952 9.54689 7.05458 9.20314 5.97645 9.00783C5.45302 8.92189 4.08583 8.87502 3.60927 8.93752ZM5.92177 9.54689C6.5702 9.67189 7.26552 9.96877 7.30458 10.1406C7.35145 10.3906 6.53895 10.7188 5.5702 10.8438C5.05458 10.9063 3.89833 10.8985 3.40614 10.8203C2.72645 10.7188 1.98427 10.4453 1.86708 10.25C1.71083 9.99221 2.48427 9.65627 3.58583 9.50783C4.08583 9.43752 5.46864 9.46096 5.92177 9.54689ZM2.39833 11.1485C3.0077 11.336 3.48427 11.3985 4.39052 11.4219C5.59364 11.4531 6.37489 11.336 7.07802 11.0235L7.29677 10.9219V11.4375C7.29677 11.8906 7.28895 11.9531 7.21864 12.0313C7.03114 12.2188 6.49989 12.4141 5.85927 12.5313C5.57802 12.586 5.27333 12.6016 4.56239 12.6016C3.7577 12.6016 3.5702 12.5938 3.18739 12.5156C2.52333 12.3828 2.14833 12.2422 1.93739 12.0391C1.82802 11.9375 1.82802 11.9297 1.82802 11.4297V10.9219L1.97645 11C2.0702 11.0313 2.2577 11.1016 2.39833 11.1485ZM2.28114 12.8203C2.99989 13.086 4.15614 13.211 5.17177 13.1406C6.02333 13.0781 6.5702 12.9531 7.24208 12.6797C7.30458 12.6485 7.31239 12.6953 7.31239 13.1641C7.31239 13.75 7.31239 13.75 6.93739 13.9375C5.74989 14.5313 2.90614 14.4531 1.99989 13.8047L1.84364 13.6875V13.1719C1.84364 12.6953 1.84364 12.6563 1.91395 12.6797C1.9452 12.6953 2.11708 12.7578 2.28114 12.8203ZM2.71864 14.6797C2.89833 14.7266 3.17958 14.7813 3.34364 14.8125C3.74989 14.8828 5.36708 14.8828 5.80458 14.8125C6.2577 14.7422 6.8202 14.5938 7.08583 14.4688L7.30458 14.3672V14.875C7.30458 15.4531 7.29677 15.4688 6.9452 15.6485C6.39833 15.9297 5.70302 16.0391 4.5702 16.0391C3.87489 16.0391 3.59364 16.0235 3.28114 15.9688C2.60145 15.8438 2.16395 15.6797 1.9452 15.4766C1.83583 15.375 1.83583 15.3672 1.83583 14.8672V14.3594L2.11708 14.4766C2.26552 14.5469 2.53895 14.6328 2.71864 14.6797ZM2.10927 16.2031C3.28895 16.7031 5.49208 16.7422 6.78895 16.2891C6.99208 16.2188 7.1952 16.1406 7.23427 16.125C7.29677 16.0938 7.30458 16.1406 7.30458 16.6094V17.125L7.17177 17.2266C6.72645 17.5703 5.78895 17.7656 4.62489 17.7735C3.42958 17.7813 2.45302 17.586 1.99208 17.25L1.82802 17.1328V16.6172C1.82802 16.3281 1.83583 16.1016 1.85145 16.1016C1.86708 16.1094 1.98427 16.1485 2.10927 16.2031Z" fill="#EFF0F4"/>
<path d="M14.0469 10.1485C13 10.3047 12.2578 10.6563 12.0625 11.0938C11.9922 11.2422 11.9844 11.4532 11.9844 14.7579C11.9844 17.125 12 18.3125 12.0313 18.4219C12.0859 18.6094 12.3516 18.8829 12.6094 19.0157C12.8984 19.1641 13.4141 19.3204 13.9297 19.4063C14.5547 19.5157 15.8438 19.5235 16.5 19.4297C17.7266 19.2422 18.4219 18.875 18.5313 18.3672C18.5625 18.211 18.5703 17.211 18.5625 14.6641C18.5469 10.7579 18.5781 11.0704 18.25 10.7813C17.9219 10.4844 17.2656 10.2657 16.3672 10.1407C15.7891 10.0704 14.5547 10.0704 14.0469 10.1485ZM16.4531 10.7032C17.1953 10.8125 17.9609 11.1172 18 11.3204C18.0313 11.4844 17.6094 11.7266 17.0547 11.8672C16.4141 12.0235 16.1484 12.0469 15.2109 12.0469C14.2422 12.0469 13.8438 12 13.3281 11.8282C12.8828 11.6797 12.5391 11.4766 12.5391 11.3594C12.5391 11.125 13.2422 10.836 14.1406 10.7032C14.6641 10.625 15.9375 10.625 16.4531 10.7032ZM13.6328 12.461C14.1953 12.5704 14.7188 12.625 15.3203 12.625C16.3828 12.625 17.0938 12.4922 17.9688 12.125C18.0078 12.1094 18.0156 12.2266 18.0156 12.6172V13.1329L17.8672 13.25C17.6719 13.4141 17.1484 13.6016 16.5938 13.6954C15.9609 13.8047 14.7109 13.8204 14.0703 13.711C13.4922 13.6172 12.9453 13.4375 12.7344 13.2813L12.5625 13.1485L12.5469 12.6329L12.5312 12.1172L12.8828 12.25C13.0781 12.3204 13.4141 12.4141 13.6328 12.461ZM13.1562 14.0625C13.7969 14.2579 14.1797 14.3047 15.2734 14.3047C16.0859 14.3047 16.3672 14.2891 16.6797 14.2266C17.1172 14.1485 17.6328 14 17.8594 13.8829L18.0078 13.8047V14.3204C18.0078 14.8204 18.0078 14.8438 17.9063 14.9297C17.7031 15.125 17.2656 15.2813 16.6016 15.4141C16.3125 15.4688 16.0469 15.4844 15.2734 15.4844C14.4141 15.4844 14.25 15.4688 13.8516 15.3907C13.3359 15.2891 12.9375 15.1485 12.7109 14.9922L12.5547 14.8829L12.5391 14.336L12.5234 13.7891L12.6719 13.8672C12.7734 13.9219 12.9766 14.0079 13.1562 14.0625ZM12.6875 15.6094C12.875 15.7032 13.2812 15.8282 13.6641 15.9141C15.0781 16.2032 16.8203 16.0704 17.9375 15.5782C18 15.5469 18.0078 15.5938 18.0078 16.0625C18.0078 16.5391 18.0078 16.5782 17.9219 16.6641C17.6406 16.9219 16.7969 17.1563 15.8594 17.2344C14.6406 17.3282 13.2031 17.1016 12.7188 16.7344L12.5547 16.6094L12.5391 16.086C12.5313 15.7969 12.5391 15.5625 12.5547 15.5625C12.5703 15.5625 12.6328 15.5782 12.6875 15.6094ZM13.3516 17.5547C13.5469 17.6094 13.8438 17.6719 14.0078 17.7032C14.4141 17.7735 16.1406 17.7735 16.5469 17.7032C16.9922 17.625 17.5313 17.4766 17.7891 17.3594L18.0156 17.2579V17.7735C18.0156 18.375 18.0156 18.375 17.5625 18.5782C16.4297 19.086 13.9688 19.0782 12.9297 18.5547C12.5391 18.3594 12.5391 18.3594 12.5391 17.7735V17.2657L12.7656 17.3672C12.8906 17.4141 13.1562 17.5 13.3516 17.5547Z" fill="#EFF0F4"/>
<path d="M8.42188 12.5V14.4062L8.64844 14.2734C8.77344 14.2031 9.45313 13.8125 10.1563 13.4063L11.4297 12.6719V12.1641V11.6562L11.2812 11.6875C11.1953 11.7031 10.9453 11.7188 10.7109 11.7188C10.3516 11.7109 10.2422 11.6953 9.94531 11.5937C9.50781 11.4375 9.04687 11.1641 8.6875 10.8359L8.40625 10.5859L8.42188 12.5Z" fill="#EFF0F4"/>
</g>
<defs>
<clipPath id="clip0_313_16">
<rect width="20" height="20" fill="white"/>
</clipPath>
</defs>
</svg>
