<svg width="20" height="20" viewBox="0 0 20 20" fill="none" xmlns="http://www.w3.org/2000/svg">
<g clip-path="url(#clip0_310_9)">
<path d="M3.0702 0.195294C2.6991 -0.0937687 2.17176 -0.0586125 1.83582 0.273419L0.273324 1.83592C-0.0587075 2.16795 -0.0938638 2.69529 0.191293 3.07029L3.31629 7.13279C3.49207 7.36326 3.76942 7.49998 4.05848 7.49998H6.17176L10.4296 11.7578C9.85536 12.8906 10.0389 14.3125 10.9882 15.2578L15.3632 19.6328C15.8514 20.1211 16.6444 20.1211 17.1327 19.6328L19.6327 17.1328C20.121 16.6445 20.121 15.8515 19.6327 15.3633L15.2577 10.9883C14.3124 10.0429 12.8905 9.85545 11.7577 10.4297L7.49989 6.17186V4.06248C7.49989 3.76951 7.36317 3.49608 7.1327 3.32029L3.0702 0.195294ZM0.77723 15.4726C0.281136 15.9687 -0.000113753 16.6445 -0.000113753 17.3476C-0.000113753 18.8125 1.18739 20 2.65223 20C3.35535 20 4.03114 19.7187 4.52723 19.2226L9.12879 14.6211C8.8241 13.8047 8.77723 12.918 8.98817 12.0781L6.57801 9.66795L0.77723 15.4726ZM19.9999 5.62498C19.9999 5.21483 19.9569 4.81639 19.8749 4.43358C19.7811 3.99608 19.246 3.88279 18.9296 4.1992L16.4335 6.69529C16.3163 6.81248 16.1561 6.87889 15.9921 6.87889H13.7499C13.4061 6.87889 13.1249 6.59764 13.1249 6.25389V4.00779C13.1249 3.84373 13.1913 3.68358 13.3085 3.56639L15.8046 1.07029C16.121 0.753888 16.0077 0.218731 15.5702 0.124981C15.1835 0.04295 14.785 -1.87055e-05 14.3749 -1.87055e-05C11.2694 -1.87055e-05 8.74989 2.51951 8.74989 5.62498V5.65623L12.0819 8.98826C13.4882 8.63279 15.0429 9.00779 16.1444 10.1094L16.7577 10.7226C18.6718 9.8242 19.9999 7.87889 19.9999 5.62498ZM2.18739 16.875C2.18739 16.6263 2.28616 16.3879 2.46197 16.2121C2.63779 16.0363 2.87625 15.9375 3.12489 15.9375C3.37353 15.9375 3.61198 16.0363 3.7878 16.2121C3.96361 16.3879 4.06239 16.6263 4.06239 16.875C4.06239 17.1236 3.96361 17.3621 3.7878 17.5379C3.61198 17.7137 3.37353 17.8125 3.12489 17.8125C2.87625 17.8125 2.63779 17.7137 2.46197 17.5379C2.28616 17.3621 2.18739 17.1236 2.18739 16.875Z" fill="#EFF0F4"/>
</g>
<defs>
<clipPath id="clip0_310_9">
<rect width="20" height="20" fill="white"/>
</clipPath>
</defs>
</svg>
