<svg width="20" height="16" viewBox="0 0 20 16" fill="none" xmlns="http://www.w3.org/2000/svg">
<g clip-path="url(#clip0_124_280)">
<path d="M3.6844 1.95C3.1594 1.775 2.87815 1.20937 3.05315 0.684375C3.22815 0.159375 3.79377 -0.121875 4.31877 0.053125L7.85002 1.23125C8.28127 0.49375 9.0844 0 10 0C11.3813 0 12.5 1.11875 12.5 2.5C12.5 2.59375 12.4938 2.68438 12.4844 2.775L16.3156 4.05312C16.8406 4.22813 17.1219 4.79375 16.9469 5.31875C16.7719 5.84375 16.2063 6.125 15.6813 5.95L11.45 4.5375C11.3094 4.6375 11.1594 4.72187 11 4.79375V15C11 15.5531 10.5531 16 10 16H4.00002C3.4469 16 3.00002 15.5531 3.00002 15C3.00002 14.4469 3.4469 14 4.00002 14H9.00002V4.79063C8.34377 4.50313 7.83752 3.94688 7.61877 3.25938L3.6844 1.94687V1.95ZM6.26252 9L4.00002 5.11875L1.73752 9H6.26252ZM4.00002 12C2.0344 12 0.400023 10.9375 0.0625233 9.53438C-0.0187267 9.19063 0.0937733 8.8375 0.271898 8.53125L3.2469 3.43125C3.40315 3.1625 3.69065 3 4.00002 3C4.3094 3 4.5969 3.16563 4.75315 3.43125L7.72815 8.53125C7.90627 8.8375 8.01877 9.19063 7.93752 9.53438C7.60002 10.9375 5.96565 12 4.00002 12ZM15.9625 9.11875L13.7 13H18.2281L15.9625 9.11875ZM19.9 13.5344C19.5625 14.9375 17.9281 16 15.9625 16C13.9969 16 12.3625 14.9375 12.025 13.5344C11.9438 13.1906 12.0563 12.8375 12.2344 12.5312L15.2094 7.43125C15.3656 7.1625 15.6531 7 15.9625 7C16.2719 7 16.5594 7.16563 16.7156 7.43125L19.6906 12.5312C19.8688 12.8375 19.9813 13.1906 19.9 13.5344Z" fill="#EFF0F4"/>
</g>
<defs>
<clipPath id="clip0_124_280">
<rect width="20" height="16" fill="white"/>
</clipPath>
</defs>
</svg>
