<svg width="75" height="75" viewBox="0 0 75 75" fill="none" xmlns="http://www.w3.org/2000/svg">
<path d="M71.4954 65.0248V75H3.50464V65.0226C3.50464 60.3121 7.56564 54.5132 12.5266 52.1568L23.5658 46.9121L31.229 62.8813L35.1525 52.2433C35.9262 52.3896 36.6931 52.5847 37.5 52.5847C38.3069 52.5847 39.0717 52.3896 39.8475 52.2433L43.5716 62.3581L51.084 46.7348L62.4801 52.1546C67.4344 54.511 71.4954 60.3099 71.4954 65.0248ZM13.533 30.063V22.8587C13.533 21.6373 14.1692 20.5666 15.129 19.9503C16.4169 8.73825 25.9532 0 37.5045 0C49.0557 0 58.5942 8.73825 59.8843 19.9503C60.8419 20.5666 61.4781 21.6373 61.4781 22.8587V30.063C61.4781 31.976 59.9286 33.5277 58.0134 33.5277C56.0982 33.5277 54.5487 31.976 54.5487 30.063V28.5489C52.6734 37.981 45.7683 46.737 37.5067 46.737C29.245 46.737 22.34 37.981 20.4647 28.5489V30.063C20.4647 31.6146 19.4339 32.9136 18.0263 33.3548C19.4051 38.0475 22.4641 42.1019 26.6892 44.7619C27.4694 44.5048 28.4537 44.5535 29.4091 45.0501C30.943 45.8481 31.7255 47.3998 31.1447 48.5082C30.5662 49.6165 28.8549 49.8648 27.312 49.0645C26.186 48.4771 25.4722 47.4907 25.3968 46.5685C20.5577 43.474 17.1263 38.7369 15.7098 33.2727C14.4374 32.7629 13.533 31.5215 13.533 30.063ZM17.4898 19.1412C17.594 19.1479 17.6938 19.1501 17.7935 19.1878C18.044 19.2809 18.2258 19.4605 18.3521 19.671C19.1036 19.9902 19.7021 20.5732 20.0701 21.2959C21.092 11.7175 28.4958 6.65011 37.5 6.65011C46.5043 6.65011 53.9081 11.7175 54.93 21.2959C55.4376 20.3006 56.4019 19.589 57.5568 19.4405C56.0583 9.70252 47.6481 2.21449 37.5 2.21449C27.4561 2.2167 19.1125 9.55178 17.4898 19.1412Z" fill="#FFBDBD"/>
</svg>
