<svg width="75" height="75" viewBox="0 0 75 75" fill="none" xmlns="http://www.w3.org/2000/svg">
<path d="M16.6699 12.7734L2.92969 6.09375V40.4883L3.31055 40.6934C3.31055 40.6934 5.33203 41.8945 6.38672 39.668L17.3438 15.791C17.3145 15.7617 18.3691 13.7109 16.6699 12.7734Z" fill="#EFF0F4"/>
<path d="M55.2832 17.9883C52.4414 18.4863 46.084 16.3769 46.084 16.3769C44.7949 15.6152 40.0195 15.3516 40.0195 15.3516C36.3574 15.0879 31.4648 17.959 31.4648 17.959H19.5996L17.8711 21.6504H25.7227C23.6719 24.2578 23.5254 27.334 23.5254 27.334C23.6426 31.6113 22.1777 33.6328 22.1777 33.6328C21.0059 37.0605 26.0156 37.4707 26.0156 37.4707C33.3398 36.2109 33.7793 29.3555 33.7793 29.3555C36.2109 25.1367 40.2539 27.1582 40.2539 27.1582L62.0508 46.9922C63.8086 48.75 62.4902 50.8887 62.4902 50.8887C61.4648 52.8808 59.1211 52.0898 59.1211 52.0898L43.7109 40.6641C40.9277 39.9609 41.8066 42.6855 41.8066 42.6855L56.748 54.0527C57.832 55.5762 56.748 57.0703 56.748 57.0703C55.9277 58.5644 54.0234 57.7734 54.0234 57.7734L40.4883 47.7832C37.8809 47.5781 38.9063 50.0098 38.9063 50.0098L50.332 58.5937C51.7969 60.2051 50.7715 61.6992 50.7715 61.6992C49.7168 63.4277 47.959 62.666 47.959 62.666L37.2363 54.7851C34.5996 54.4043 35.4492 56.7187 35.4492 56.7187L42.6563 62.4316C42.4805 65.625 39.4043 64.3652 39.4043 64.3652L37.5 62.9004C37.1777 61.2891 35.1855 61.1133 35.1855 61.1133L33.0469 59.4726C33.1348 57.9199 31.7871 56.6016 31.7871 56.6016C30.6738 55.1953 28.3594 55.7812 28.3594 55.7812C28.1836 55.1953 27.2461 54.7851 27.2461 54.7851C27.3633 52.6465 26.0742 51.5625 26.0742 51.5625C24.668 49.834 22.3242 50.4199 22.3242 50.4199C22.2656 50.0684 21.5625 49.5703 21.5625 49.5703C22.0605 47.0215 20.918 45.6738 20.918 45.6738C19.7461 43.4473 16.3184 44.2676 16.3184 44.2676L11.0742 37.3828L9.58008 40.6933L14.0039 46.582L10.7227 51.2402C9.90234 54.2871 11.3379 55.6348 11.3379 55.6348C14.7363 59.0625 17.6367 55.459 17.6367 55.459C15.9375 58.8574 18.0762 60.6445 18.0762 60.6445C21.2109 63.6914 24.0527 60.3223 24.0527 60.3223C22.207 63.5742 24.1992 65.1269 24.1992 65.1269C27.7734 68.8476 30.791 63.8965 30.791 63.8965C29.209 66.6504 31.4648 68.5547 31.4648 68.5547C35.0098 71.3086 37.5 66.416 37.5 66.416C38.877 67.793 41.25 67.4414 41.25 67.4414C44.502 66.8848 45.1465 64.1894 45.1465 64.1894C49.2188 67.0605 51.8555 64.7168 51.8555 64.7168C54.082 63.1348 53.877 60.7031 53.877 60.7031C57.2168 61.2598 58.5938 59.2676 58.5938 59.2676C60.4688 57.7148 60.0586 55.0195 60.0586 55.0195C62.7246 54.9023 64.3652 53.584 65.0098 52.2363C67.2949 48.1933 64.1895 44.8828 64.1895 44.8828L65.8887 40.8691L55.2832 17.9883Z" fill="#EFF0F4"/>
<path d="M58.0078 12.8027C58.0078 12.8027 56.4258 13.5059 57.1875 15.4102C57.7441 15.9082 68.6133 39.6387 68.6133 39.6387C68.6133 39.6387 69.6387 41.4258 71.1328 40.6934L72.0703 40.2539V5.53711L58.0078 12.8027Z" fill="#EFF0F4"/>
</svg>
