<svg width="30" height="24" viewBox="0 0 30 24" fill="none" xmlns="http://www.w3.org/2000/svg">
<g clip-path="url(#clip0_101_239)">
<path d="M5.5266 2.925C4.7391 2.6625 4.31722 1.81406 4.57972 1.02656C4.84222 0.239063 5.69066 -0.182812 6.47816 0.0796875L11.775 1.84688C12.4219 0.740625 13.6266 0 15 0C17.0719 0 18.75 1.67812 18.75 3.75C18.75 3.89062 18.7407 4.02656 18.7266 4.1625L24.4735 6.07969C25.261 6.34219 25.6828 7.19062 25.4203 7.97812C25.1578 8.76562 24.3094 9.1875 23.5219 8.925L17.175 6.80625C16.9641 6.95625 16.7391 7.08281 16.5 7.19062V22.5C16.5 23.3297 15.8297 24 15 24H6.00004C5.17035 24 4.50004 23.3297 4.50004 22.5C4.50004 21.6703 5.17035 21 6.00004 21H13.5V7.18594C12.5157 6.75469 11.7563 5.92031 11.4282 4.88906L5.5266 2.92031V2.925ZM9.39378 13.5L6.00004 7.67813L2.60628 13.5H9.39378ZM6.00004 18C3.0516 18 0.600035 16.4062 0.0937849 14.3016C-0.0280901 13.7859 0.14066 13.2563 0.407847 12.7969L4.87035 5.14688C5.10472 4.74375 5.53597 4.5 6.00004 4.5C6.4641 4.5 6.89535 4.74844 7.12972 5.14688L11.5922 12.7969C11.8594 13.2563 12.0282 13.7859 11.9063 14.3016C11.4 16.4062 8.94847 18 6.00004 18ZM23.9438 13.6781L20.55 19.5H27.3422L23.9438 13.6781ZM29.85 20.3016C29.3438 22.4062 26.8922 24 23.9438 24C20.9953 24 18.5438 22.4062 18.0375 20.3016C17.9157 19.7859 18.0844 19.2563 18.3516 18.7969L22.8141 11.1469C23.0485 10.7438 23.4797 10.5 23.9438 10.5C24.4078 10.5 24.8391 10.7484 25.0735 11.1469L29.536 18.7969C29.8032 19.2563 29.9719 19.7859 29.85 20.3016Z" fill="#02ACF2"/>
</g>
<defs>
<clipPath id="clip0_101_239">
<rect width="30" height="24" fill="white"/>
</clipPath>
</defs>
</svg>
