<svg width="16" height="15" viewBox="0 0 16 15" fill="none" xmlns="http://www.w3.org/2000/svg">
<g clip-path="url(#clip0_150_1613)">
<path d="M13.7812 1.72559L14.1594 2.08008C14.4531 2.35547 14.4531 2.80078 14.1594 3.07324L13.25 3.92871L11.8094 2.57812L12.7188 1.72559C13.0125 1.4502 13.4875 1.4502 13.7781 1.72559H13.7812ZM6.55625 7.50586L10.75 3.57129L12.1906 4.92188L7.99375 8.85352C7.90313 8.93848 7.79062 9 7.66875 9.03223L5.84062 9.52148L6.3625 7.80762C6.39688 7.69336 6.4625 7.58789 6.55312 7.50293L6.55625 7.50586ZM11.6594 0.732422L5.49375 6.50977C5.22188 6.76465 5.025 7.07812 4.92188 7.4209L4.02812 10.3506C3.95312 10.5967 4.025 10.8604 4.21875 11.042C4.4125 11.2236 4.69375 11.291 4.95625 11.2207L8.08125 10.3828C8.45 10.2832 8.78438 10.0986 9.05313 9.84668L15.2188 4.06934C16.0969 3.24609 16.0969 1.91016 15.2188 1.08691L14.8406 0.732422C13.9625 -0.0908203 12.5375 -0.0908203 11.6594 0.732422ZM2.75 1.875C1.23125 1.875 0 3.0293 0 4.45312V12.4219C0 13.8457 1.23125 15 2.75 15H11.25C12.7688 15 14 13.8457 14 12.4219V9.14062C14 8.75098 13.6656 8.4375 13.25 8.4375C12.8344 8.4375 12.5 8.75098 12.5 9.14062V12.4219C12.5 13.0693 11.9406 13.5938 11.25 13.5938H2.75C2.05938 13.5938 1.5 13.0693 1.5 12.4219V4.45312C1.5 3.80566 2.05938 3.28125 2.75 3.28125H6.25C6.66563 3.28125 7 2.96777 7 2.57812C7 2.18848 6.66563 1.875 6.25 1.875H2.75Z" fill="#878C96"/>
</g>
<defs>
<clipPath id="clip0_150_1613">
<rect width="16" height="15" fill="white"/>
</clipPath>
</defs>
</svg>
