<svg width="20" height="23" viewBox="0 0 20 23" fill="none" xmlns="http://www.w3.org/2000/svg">
<path d="M4.28571 5.71429C4.28571 7.22981 4.88775 8.68326 5.95939 9.7549C7.03103 10.8265 8.48448 11.4286 10 11.4286C11.5155 11.4286 12.969 10.8265 14.0406 9.7549C15.1122 8.68326 15.7143 7.22981 15.7143 5.71429C15.7143 4.19876 15.1122 2.74531 14.0406 1.67368C12.969 0.602039 11.5155 0 10 0C8.48448 0 7.03103 0.602039 5.95939 1.67368C4.88775 2.74531 4.28571 4.19876 4.28571 5.71429ZM8.50446 14.6518L9.33482 16.0357L7.84821 21.567L6.24107 15.0089C6.15179 14.6473 5.80357 14.4107 5.44196 14.5045C2.31696 15.2857 0 18.1161 0 21.4866C0 22.2455 0.616072 22.8571 1.37054 22.8571H7.25446C7.25446 22.8571 7.25446 22.8571 7.25893 22.8571H12.7455C12.7455 22.8571 12.7455 22.8571 12.75 22.8571H18.6295C19.3884 22.8571 20 22.2411 20 21.4866C20 18.1161 17.683 15.2857 14.558 14.5045C14.1964 14.4152 13.8482 14.6518 13.7589 15.0089L12.1518 21.567L10.6652 16.0357L11.4955 14.6518C11.7812 14.1741 11.4375 13.5714 10.8839 13.5714H9.12054C8.56697 13.5714 8.22322 14.1786 8.50893 14.6518H8.50446Z" fill="#EFF0F4"/>
</svg>
