<svg width="74" height="74" viewBox="0 0 74 74" fill="none" xmlns="http://www.w3.org/2000/svg">
<g clip-path="url(#clip0_658_8)">
<path d="M71.769 63.3466L51.308 42.8857C58.2903 31.9972 56.8046 17.733 47.557 8.48539C36.7847 -2.28688 19.2577 -2.28688 8.48539 8.48539C-2.28606 19.2568 -2.28606 36.7847 8.48539 47.557C17.7322 56.8038 31.9972 58.2919 42.8857 51.308L63.3466 71.769C64.5082 72.9297 66.0328 73.5105 67.5582 73.5105C69.0837 73.5105 70.6083 72.9297 71.769 71.769C74.0913 69.4467 74.0913 65.6689 71.769 63.3466ZM40.9508 40.9508C37.3858 44.5159 32.7039 46.298 28.022 46.298C23.3401 46.298 18.6574 44.5159 15.0932 40.9508C7.96391 33.8216 7.96391 22.2216 15.0932 15.0924C22.2216 7.9631 33.8216 7.9631 40.9516 15.0924C48.0793 22.2216 48.0793 33.8216 40.9508 40.9508Z" fill="#EFF0F4"/>
<path d="M19.0546 38.4831C18.6477 38.4831 18.2407 38.328 17.9304 38.0177C12.4265 32.5138 12.4265 23.5586 17.9304 18.0547C18.5502 17.4341 19.5582 17.4341 20.178 18.0547C20.7985 18.6752 20.7985 19.6816 20.178 20.3022C15.9136 24.5666 15.9144 31.505 20.178 35.7702C20.7985 36.3907 20.7985 37.3971 20.178 38.0177C19.8685 38.328 19.4615 38.4831 19.0546 38.4831Z" fill="#EFF0F4"/>
<path d="M39.4839 34.4308C39.2816 34.4308 39.0745 34.3918 38.8763 34.309C38.0657 33.9727 37.6807 33.0426 38.0161 32.232C39.0485 29.7424 39.1273 26.9685 38.2371 24.4212C37.9487 23.5927 38.3849 22.6862 39.2142 22.3971C40.0419 22.1071 40.9484 22.5449 41.2392 23.3734C42.3861 26.659 42.2846 30.2379 40.9525 33.4496C40.699 34.0612 40.1077 34.4308 39.4839 34.4308Z" fill="#EFF0F4"/>
</g>
<defs>
<clipPath id="clip0_658_8">
<rect width="74" height="74" fill="white"/>
</clipPath>
</defs>
</svg>
