<svg width="20" height="20" viewBox="0 0 20 20" fill="none" xmlns="http://www.w3.org/2000/svg">
<g clip-path="url(#clip0_124_282)">
<path d="M13.7734 12.7813C13.7734 13.1172 13.5 13.3906 13.1641 13.3906C12.8281 13.3906 12.5547 13.1172 12.5547 12.7813C12.5547 12.4453 12.8281 12.1719 13.1641 12.1719C13.5078 12.1719 13.7734 12.4453 13.7734 12.7813ZM17.25 5.28908C17.4922 5.28908 17.6875 5.09376 17.6875 4.85158C17.6875 4.60939 17.4922 4.41408 17.25 4.41408H14.9062L15.1875 5.28908H17.25ZM19.2188 12.2969V13.4219C19.2188 14 18.8359 14.4922 18.3125 14.6641V18.5C18.3125 18.8203 18.0547 19.086 17.7266 19.086H1.36719C1.04688 19.086 0.78125 18.8281 0.78125 18.5V6.85939C0.78125 6.82033 0.78125 6.78908 0.789063 6.75783C0.78125 6.68752 0.78125 6.6172 0.78125 6.5547C0.78125 5.58595 1.55469 4.40627 2.51562 4.40627H3.23438C3.20312 4.43752 3.17188 4.46876 3.14062 4.50001C2.92969 4.71095 2.92188 5.06251 3.10938 5.28908H2.51562C2.17188 5.28908 1.8125 5.79689 1.69531 6.26564H17.7344C18.0547 6.26564 18.3203 6.52345 18.3203 6.85158V11.0547C18.8359 11.2266 19.2188 11.7188 19.2188 12.2969ZM18.9297 12.2969C18.9297 11.7344 18.4688 11.2735 17.9062 11.2735H12.7734C11.9141 11.2735 11.2109 11.9688 11.2109 12.836C11.2109 13.7031 11.9062 14.3985 12.7734 14.3985H18.1797C18.6094 14.2813 18.9297 13.8906 18.9297 13.4219V12.2969ZM15.1094 5.85158L14.3203 3.81251L9.0625 5.85158H15.1094ZM3.64844 5.85158H5.14062L13.8047 2.4922L13.3125 1.21095C13.2187 0.976577 12.9531 0.85939 12.7188 0.95314L3.60938 4.48439C3.375 4.57814 3.25781 4.84376 3.35156 5.07814L3.64844 5.85158Z" fill="#EFF0F4"/>
</g>
<defs>
<clipPath id="clip0_124_282">
<rect width="20" height="20" fill="white"/>
</clipPath>
</defs>
</svg>
