<svg width="20" height="18" viewBox="0 0 20 18" fill="none" xmlns="http://www.w3.org/2000/svg">
<path d="M19.9931 8.91589C19.9931 9.54401 19.4722 10.036 18.8819 10.036H17.7708L17.7951 15.6264C17.7951 15.7206 17.7882 15.8148 17.7778 15.909V16.4708C17.7778 17.242 17.1562 17.8667 16.3889 17.8667H15.8333C15.7951 17.8667 15.7569 17.8667 15.7188 17.8632C15.6701 17.8667 15.6215 17.8667 15.5729 17.8667H13.6111C12.8438 17.8667 12.2222 17.242 12.2222 16.4708V13.4C12.2222 12.7823 11.7257 12.2833 11.1111 12.2833H8.88889C8.27431 12.2833 7.77778 12.7823 7.77778 13.4V16.4708C7.77778 17.242 7.15625 17.8667 6.38889 17.8667H4.44792C4.39583 17.8667 4.34375 17.8632 4.29167 17.8597C4.25 17.8632 4.20833 17.8667 4.16667 17.8667H3.61111C2.84375 17.8667 2.22222 17.242 2.22222 16.4708V12.5625C2.22222 12.5311 2.22222 12.4962 2.22569 12.4648V10.036H1.11111C0.486111 10.036 0 9.5475 0 8.91589C0 8.60182 0.104167 8.32266 0.347222 8.07839L9.25 0.279167C9.49306 0.0348958 9.77083 0 10.0139 0C10.2569 0 10.5347 0.0697917 10.7431 0.244271L19.6111 8.07839C19.8889 8.32266 20.0278 8.60182 19.9931 8.91589Z" fill="#EFF0F4"/>
</svg>
