<svg width="80" height="70" viewBox="0 0 80 70" fill="none" xmlns="http://www.w3.org/2000/svg">
<path d="M51.4142 28.4142L28.4142 51.4142M52.5858 51.4142L29.5858 28.4142M67.1631 67.5387H11.9161C10.9951 67.5387 10.2477 66.7912 10.2477 65.8703V22.7044C10.2477 21.7835 10.9951 21.036 11.9161 21.036C12.8371 21.036 13.5845 21.7835 13.5845 22.7044V64.2027H65.4946V22.5001C65.4946 21.5791 66.2421 20.8316 67.1631 20.8316C68.084 20.8316 68.8315 21.5791 68.8315 22.5001V65.8703C68.8315 66.7921 68.0849 67.5387 67.1631 67.5387ZM3.66985 29.8145C3.12761 29.8145 2.59621 29.5509 2.27587 29.0654C1.76867 28.2962 1.98056 27.2609 2.74971 26.7537L39.2785 2.6515C39.8449 2.27693 40.5807 2.28527 41.1396 2.66735L76.3537 26.7688C77.1136 27.2893 77.3089 28.3279 76.7883 29.0879C76.2677 29.8487 75.2308 30.0439 74.4692 29.5225L40.1803 6.05427L4.58749 29.5384C4.30386 29.7252 3.98519 29.8145 3.66985 29.8145Z" stroke="#EFF0F4" stroke-width="4"/>
</svg>
