<svg width="76" height="66" viewBox="0 0 76 66" fill="none" xmlns="http://www.w3.org/2000/svg">
<path d="M43.7536 56.5433H32.1613C31.2403 56.5433 30.4928 55.7959 30.4928 54.8749V46.8489H22.4668C21.5458 46.8489 20.7984 46.1014 20.7984 45.1804V33.589C20.7984 32.668 21.5458 31.9205 22.4668 31.9205H30.4928V23.8953C30.4928 22.9744 31.2403 22.2269 32.1613 22.2269H43.7536C44.6746 22.2269 45.422 22.9744 45.422 23.8953V31.9205H53.4472C54.3682 31.9205 55.1156 32.668 55.1156 33.589V45.1804C55.1156 46.1014 54.3682 46.8489 53.4472 46.8489H45.422V54.8749C45.422 55.7967 44.6754 56.5433 43.7536 56.5433ZM33.8297 53.2064H42.0852V45.1804C42.0852 44.2594 42.8326 43.512 43.7536 43.512H51.7788V35.2574H43.7536C42.8326 35.2574 42.0852 34.5099 42.0852 33.589V25.5638H33.8297V33.589C33.8297 34.5099 33.0823 35.2574 32.1613 35.2574H24.1353V43.512H32.1613C33.0823 43.512 33.8297 44.2594 33.8297 45.1804V53.2064Z" fill="#EFF0F4"/>
<path d="M65.5809 65.5387H10.334C9.41297 65.5387 8.66551 64.7912 8.66551 63.8703V20.7044C8.66551 19.7835 9.41297 19.036 10.334 19.036C11.2549 19.036 12.0024 19.7835 12.0024 20.7044V62.2027H63.9125V20.5001C63.9125 19.5791 64.6599 18.8316 65.5809 18.8316C66.5019 18.8316 67.2494 19.5791 67.2494 20.5001V63.8703C67.2494 64.7921 66.5027 65.5387 65.5809 65.5387Z" fill="#EFF0F4"/>
<path d="M2.0877 27.8145C1.54546 27.8145 1.01406 27.5509 0.693718 27.0654C0.186513 26.2962 0.398404 25.2609 1.16755 24.7537L37.6963 0.651496C38.2628 0.276932 38.9985 0.285274 39.5575 0.667347L74.7715 24.7688C75.5315 25.2893 75.7267 26.3279 75.2061 27.0879C74.6856 27.8487 73.6487 28.0439 72.887 27.5225L38.5981 4.05427L3.00534 27.5384C2.7217 27.7252 2.40303 27.8145 2.0877 27.8145Z" fill="#EFF0F4"/>
</svg>
