<svg width="75" height="75" viewBox="0 0 75 75" fill="none" xmlns="http://www.w3.org/2000/svg">
<path d="M37.458 0.412079C51.5618 0.412079 63.0353 11.8864 63.0361 25.9902C63.0361 29.9121 62.1717 33.6773 60.4668 37.1777L60.417 37.2724C57.9563 42.1872 50.5138 54.7736 43.3154 66.9453L39.5527 73.3076C39.1172 74.0452 38.3141 74.5039 37.458 74.5039C36.6002 74.5039 35.7979 74.0443 35.3633 73.3076L31.6621 67.0478C24.4037 54.7777 16.8988 42.09 14.4619 37.1972C12.7479 33.682 11.8799 29.9138 11.8799 25.9902C11.8799 11.8864 23.3542 0.412084 37.458 0.412079ZM31.6914 19C31.0666 19 30.5595 19.507 30.5595 20.1318V26.5586H24.1318C23.507 26.5586 23 27.0656 23 27.6904V38.3086C23 38.9333 23.507 39.4404 24.1318 39.4404H30.5595V45.8681C30.5595 46.4929 31.0666 47 31.6914 47H42.3086C42.9345 47 43.4404 46.4929 43.4404 45.8681V39.4404H49.8681C50.494 39.4404 51 38.9333 51 38.3086V27.6904C51 27.0656 50.494 26.5586 49.8681 26.5586H43.4404V20.1318C43.4404 19.507 42.9345 19 42.3086 19H31.6914Z" fill="#EFF0F4"/>
</svg>
