<svg width="75" height="75" viewBox="0 0 75 75" fill="none" xmlns="http://www.w3.org/2000/svg">
<path fill-rule="evenodd" clip-rule="evenodd" d="M75 0V58.3333H54.1667V75L28.75 58.3333H0V0H75ZM66.6667 8.33333H8.33333V50H31.2386L45.8333 59.5708V50H66.6667V8.33333ZM37.6826 39.2708C39.0173 39.2708 40.1199 39.7103 40.9907 40.5892C41.8615 41.4681 42.2969 42.5749 42.2969 43.9095C42.2969 45.2279 41.8615 46.3265 40.9907 47.2054C40.1199 48.0843 39.0173 48.5238 37.6826 48.5238C36.3154 48.5238 35.2005 48.0843 34.3379 47.2054C33.4753 46.3265 33.0439 45.2035 33.0439 43.8363C33.0439 42.5342 33.4834 41.4478 34.3623 40.577C35.2412 39.7062 36.348 39.2708 37.6826 39.2708ZM39.4893 12.7083C43.2002 12.7083 46.0241 13.5872 47.9609 15.3451C49.6699 16.9238 50.5244 18.9746 50.5244 21.4974C50.5244 23.2064 50.1094 24.6671 49.2793 25.8797C48.553 26.9407 47.3282 28.0796 45.605 29.2964L44.8359 29.8226C43.2083 30.9131 42.2074 31.7472 41.833 32.325C41.4587 32.9028 41.2715 33.9323 41.2715 35.4134V36.4144H34.0693V34.2659C34.0693 32.1989 34.2809 30.7585 34.7041 29.9447C34.9482 29.4727 35.2738 29.0536 35.6807 28.6873L36.1351 28.3087C36.3217 28.1609 36.5436 27.9915 36.8007 27.8005L39.4198 25.9255C40.5261 25.1137 41.2776 24.4759 41.6743 24.012C42.2033 23.3936 42.4678 22.6693 42.4678 21.8392C42.4678 20.7975 42.0975 19.9715 41.3569 19.3612C40.6164 18.7508 39.6113 18.4456 38.3418 18.4456C36.2585 18.4456 33.7438 19.2838 30.7979 20.9603L28.625 15.5404C32.2383 13.6523 35.8597 12.7083 39.4893 12.7083Z" fill="#FFBDBD"/>
</svg>
