<svg width="28" height="28" viewBox="0 0 28 28" fill="none" xmlns="http://www.w3.org/2000/svg">
<g clip-path="url(#clip0_100_202)">
<path d="M17.5 5.25H10.5L7.90781 1.36172C7.51953 0.776563 7.93516 0 8.63516 0H19.3648C20.0648 0 20.4805 0.776563 20.0922 1.36172L17.5 5.25ZM10.5 7H17.5C17.7078 7.13672 17.943 7.28984 18.2109 7.45937C21.3117 9.44453 28 13.7211 28 22.75C28 25.6484 25.6484 28 22.75 28H5.25C2.35156 28 0 25.6484 0 22.75C0 13.7211 6.68828 9.44453 9.78906 7.45937C10.0516 7.28984 10.2922 7.13672 10.5 7ZM15.0938 11.8125C15.0938 11.2109 14.6016 10.7188 14 10.7188C13.3984 10.7188 12.9062 11.2109 12.9062 11.8125V12.5781C12.4906 12.6711 12.075 12.8188 11.6922 13.043C10.932 13.4969 10.2758 14.2898 10.2812 15.4437C10.2867 16.5539 10.9375 17.2539 11.632 17.6695C12.2336 18.0305 12.9828 18.2602 13.5789 18.4352L13.6719 18.4625C14.3609 18.6703 14.8641 18.8344 15.2031 19.0477C15.482 19.2227 15.5203 19.343 15.5258 19.4961C15.5312 19.7695 15.4273 19.9336 15.2031 20.0703C14.9297 20.2398 14.4977 20.3438 14.0328 20.3273C13.4258 20.3055 12.857 20.1141 12.1133 19.8625C11.9875 19.8188 11.8562 19.775 11.7195 19.7312C11.1453 19.5398 10.5273 19.8516 10.3359 20.4203C10.1445 20.9891 10.4563 21.6125 11.025 21.8039C11.1289 21.8367 11.2437 21.875 11.3586 21.9187C11.8125 22.0773 12.3375 22.2578 12.9008 22.3781V23.1875C12.9008 23.7891 13.393 24.2812 13.9945 24.2812C14.5961 24.2812 15.0883 23.7891 15.0883 23.1875V22.4328C15.5258 22.3398 15.9633 22.1867 16.357 21.9406C17.1391 21.4539 17.7297 20.6227 17.7133 19.4797C17.6969 18.3695 17.0734 17.6531 16.368 17.2047C15.7391 16.8109 14.9516 16.5703 14.3391 16.3844L14.3008 16.3734C13.6008 16.1602 13.1031 16.007 12.7531 15.7992C12.4688 15.6297 12.4633 15.5313 12.4633 15.4328C12.4633 15.2305 12.5398 15.0773 12.8023 14.9242C13.0977 14.7492 13.5461 14.6453 13.9781 14.6508C14.5031 14.6562 15.0828 14.7711 15.6844 14.9352C16.2695 15.0883 16.8656 14.7437 17.0242 14.1586C17.1828 13.5734 16.8328 12.9773 16.2477 12.8187C15.8922 12.7258 15.4984 12.6328 15.0938 12.5617V11.8125Z" fill="#02ACF2"/>
</g>
<defs>
<clipPath id="clip0_100_202">
<rect width="28" height="28" fill="white"/>
</clipPath>
</defs>
</svg>
