<svg width="20" height="20" viewBox="0 0 20 20" fill="none" xmlns="http://www.w3.org/2000/svg">
<g clip-path="url(#clip0_124_270)">
<path d="M12.5 3.75H7.5L5.64844 0.972656C5.37109 0.554688 5.66797 0 6.16797 0H13.832C14.332 0 14.6289 0.554688 14.3516 0.972656L12.5 3.75ZM7.5 5H12.5C12.6484 5.09766 12.8164 5.20703 13.0078 5.32812C15.2227 6.74609 20 9.80078 20 16.25C20 18.3203 18.3203 20 16.25 20H3.75C1.67969 20 0 18.3203 0 16.25C0 9.80078 4.77734 6.74609 6.99219 5.32812C7.17969 5.20703 7.35156 5.09766 7.5 5ZM10.7812 8.4375C10.7812 8.00781 10.4297 7.65625 10 7.65625C9.57031 7.65625 9.21875 8.00781 9.21875 8.4375V8.98438C8.92188 9.05078 8.625 9.15625 8.35156 9.31641C7.80859 9.64062 7.33984 10.207 7.34375 11.0312C7.34766 11.8242 7.8125 12.3242 8.30859 12.6211C8.73828 12.8789 9.27344 13.043 9.69922 13.168L9.76562 13.1875C10.2578 13.3359 10.6172 13.4531 10.8594 13.6055C11.0586 13.7305 11.0859 13.8164 11.0898 13.9258C11.0938 14.1211 11.0195 14.2383 10.8594 14.3359C10.6641 14.457 10.3555 14.5313 10.0234 14.5195C9.58984 14.5039 9.18359 14.3672 8.65234 14.1875C8.5625 14.1562 8.46875 14.125 8.37109 14.0938C7.96094 13.957 7.51953 14.1797 7.38281 14.5859C7.24609 14.9922 7.46875 15.4375 7.875 15.5742C7.94922 15.5977 8.03125 15.625 8.11328 15.6562C8.4375 15.7695 8.8125 15.8984 9.21484 15.9844V16.5625C9.21484 16.9922 9.56641 17.3438 9.99609 17.3438C10.4258 17.3438 10.7773 16.9922 10.7773 16.5625V16.0234C11.0898 15.957 11.4023 15.8477 11.6836 15.6719C12.2422 15.3242 12.6641 14.7305 12.6523 13.9141C12.6406 13.1211 12.1953 12.6094 11.6914 12.2891C11.2422 12.0078 10.6797 11.8359 10.2422 11.7031L10.2148 11.6953C9.71484 11.543 9.35938 11.4336 9.10938 11.2852C8.90625 11.1641 8.90234 11.0938 8.90234 11.0234C8.90234 10.8789 8.95703 10.7695 9.14453 10.6602C9.35547 10.5352 9.67578 10.4609 9.98438 10.4648C10.3594 10.4688 10.7734 10.5508 11.2031 10.668C11.6211 10.7773 12.0469 10.5312 12.1602 10.1133C12.2734 9.69531 12.0234 9.26953 11.6055 9.15625C11.3516 9.08984 11.0703 9.02344 10.7812 8.97266V8.4375Z" fill="#EFF0F4"/>
</g>
<defs>
<clipPath id="clip0_124_270">
<rect width="20" height="20" fill="white"/>
</clipPath>
</defs>
</svg>
