<svg width="237" height="222" viewBox="0 0 237 222" fill="none" xmlns="http://www.w3.org/2000/svg">
<path d="M97.3672 11.144C88.3505 14.5251 80.4608 20.1607 74.8252 28.0504C68.6262 35.9401 65.2449 46.6476 65.2449 57.3551C65.2449 71.4439 70.3168 83.842 79.3335 92.2952C88.3505 101.312 100.749 106.948 114.274 106.948C128.363 106.948 140.197 101.312 149.214 92.2952C158.231 83.842 163.866 71.4439 163.866 57.3551C163.866 53.9738 163.303 50.5925 162.738 47.2111C162.176 44.3933 161.613 42.1392 160.485 39.885L159.921 40.4485V39.3214C158.794 39.8849 157.104 39.885 155.977 39.885C153.723 40.4485 150.905 40.4485 148.65 40.4485C137.379 40.4485 127.235 37.6309 118.219 31.9953C109.765 26.9234 103.003 19.5972 98.4944 11.144L97.3672 11.7075V11.144ZM68.0625 22.9785C75.3887 12.8345 86.0962 5.50837 98.4944 2.12705L101.876 1V1.56352H103.003L104.13 4.38133C108.638 12.8345 114.837 19.5972 122.727 24.6691C130.053 29.7412 139.07 31.9953 148.65 31.9953C150.905 31.9953 153.159 31.9953 154.85 31.9953C157.104 31.4317 159.358 31.4317 161.048 30.8682L164.429 29.7412V30.3047H165.557L167.248 33.1223C168.939 37.0673 170.066 41.0122 171.192 44.957C171.755 48.9019 172.32 53.4103 172.32 57.3551C172.32 73.698 166.12 87.7868 155.413 98.4943C144.706 109.202 130.617 115.401 114.274 115.401C98.4945 115.401 83.8421 109.202 73.6981 98.4943C62.9906 87.7868 56.7915 73.698 56.7915 57.3551C56.7915 44.3933 60.7364 32.5588 68.0625 22.9785Z" fill="#FCC603" stroke="#FCC603" stroke-width="1.33365"/>
<path d="M227.546 155.413C226.983 146.396 223.601 136.816 217.966 129.489C211.768 121.036 202.751 114.837 192.044 111.456C179.081 107.511 165.557 109.202 154.285 115.401C143.578 121.6 134.561 131.744 130.616 144.705C126.671 158.231 128.362 171.191 134.561 182.464C140.76 193.734 150.904 202.188 163.866 206.133C167.247 207.26 171.192 207.823 174.573 208.386C176.827 208.386 179.081 208.386 181.336 208.386V207.823L182.462 207.26C182.462 206.133 182.462 205.005 183.027 203.879C183.027 201.623 183.59 198.807 184.716 196.553C187.534 185.845 193.735 176.829 201.623 170.066C208.949 163.303 217.403 158.794 226.983 156.54V155.976L227.546 155.413ZM224.729 124.418C232.055 134.562 236 146.396 236 159.358V162.739L235.437 163.303L234.874 163.866L231.492 164.43C222.476 166.12 214.022 170.066 207.259 176.264C200.496 181.899 195.423 189.79 192.607 198.807C192.044 201.06 191.479 203.314 191.479 205.005C190.916 207.26 190.916 209.514 190.353 211.205V214.586H189.788V215.712L186.407 216.277C182.462 216.84 177.955 216.84 174.008 216.84C170.064 216.277 165.557 215.712 161.612 214.586C146.395 210.077 133.997 199.369 127.235 186.408C119.908 173.447 118.218 157.667 122.726 142.451C127.235 127.235 137.379 115.401 150.34 108.075C163.303 100.748 179.081 99.0577 194.298 103.566C207.259 106.947 217.403 114.837 224.729 124.418Z" fill="#6B6767" stroke="#6B6767" stroke-width="1.33365"/>
<path d="M1 162.739C1 150.341 4.94485 137.943 12.271 128.362C19.5972 118.219 29.7412 110.892 42.1392 106.948C57.3551 102.439 73.1347 104.693 86.0963 111.456C99.058 118.782 109.766 130.617 114.274 146.396C118.782 161.612 116.528 177.391 109.766 190.353C102.439 203.314 90.6046 213.458 75.3888 217.968C70.8804 219.094 66.9355 220.221 62.9907 220.221C58.4823 220.784 54.5375 220.221 50.5926 219.659L46.6476 219.094V218.531H46.0841V215.149C46.0841 212.895 46.0841 210.642 45.5206 208.951C44.957 206.695 44.957 204.442 44.3935 202.751C41.5757 193.734 36.5038 185.845 29.7412 179.645C22.9785 173.447 13.9618 169.503 4.94485 167.811L1.56352 167.247V166.684H1V162.739ZM19.0337 132.871C13.3981 140.761 10.0169 149.777 9.45322 159.358H10.0169V160.485C19.0337 162.739 28.0504 167.247 35.3766 173.447C43.2665 180.21 48.9019 189.79 52.2832 200.497C52.8467 202.751 53.4102 205.005 53.9738 207.26C53.9738 208.386 53.9738 210.077 54.5375 211.205H55.101V211.768C57.3551 212.333 60.1729 212.333 62.4272 211.768C65.8085 211.768 69.1898 211.205 72.571 210.077C86.0963 206.132 96.2402 197.116 102.439 186.408C108.075 175.138 109.766 161.612 106.384 148.65C102.439 135.689 93.4224 124.981 82.1514 119.346C71.4439 113.146 57.9188 111.456 44.3935 115.401C34.2495 118.219 25.2328 124.981 19.0337 132.871Z" fill="#02ACF2" stroke="#02ACF2" stroke-width="1.33365"/>
</svg>
