<svg width="20" height="20" viewBox="0 0 20 20" fill="none" xmlns="http://www.w3.org/2000/svg">
<g clip-path="url(#clip0_313_30)">
<path d="M13.2031 16.4141C13.2031 16.1953 13.0234 16.0156 12.8047 16.0156H7.19531C6.97656 16.0156 6.79687 16.1953 6.79687 16.4141V18.0156H2.78906V19.2188H17.2187V18.0156H13.2109L13.2031 16.4141Z" fill="#EFF0F4"/>
<path d="M18.0156 0.78125H1.98437C1.32031 0.78125 0.78125 1.32031 0.78125 1.98437V13.2031C0.78125 13.8672 1.32031 14.4062 1.98437 14.4062H18.0156C18.6797 14.4062 19.2188 13.8672 19.2188 13.2031V1.98437C19.2188 1.32031 18.6797 0.78125 18.0156 0.78125ZM10.1562 3.58594C10.9141 3.58594 11.5234 4.22656 11.5234 5.02344C11.5234 5.375 11.3984 5.69531 11.1953 5.94531C10.7188 6.84375 10.1641 8.9375 10.1641 8.9375C10.1641 8.33594 8.99219 5.78125 8.99219 5.78125H9C8.875 5.5625 8.79687 5.30469 8.79687 5.03125C8.78906 4.23438 9.39844 3.58594 10.1562 3.58594ZM15.2344 11.8594L15.1328 12.3672L14.7422 12.0078L12.0156 9.13281L10.4609 10.7734L10.2656 11.0547L10.0469 10.7734L7.32031 7.89062L4 11.3828L3.58594 10.9453L7.10938 7.23437L7.33594 7.03125L7.52344 7.23437L10.25 10.1094L11.8047 8.46875L12.0312 8.22656L12.2187 8.46875L14.7891 11.1797L15.8359 6.75781L16.4062 6.90625L15.2344 11.8594Z" fill="#EFF0F4"/>
</g>
<defs>
<clipPath id="clip0_313_30">
<rect width="20" height="20" fill="white"/>
</clipPath>
</defs>
</svg>
