<svg width="33" height="29" viewBox="0 0 33 29" fill="none" xmlns="http://www.w3.org/2000/svg">
<path d="M15.4062 0.882838C15.2969 0.951197 15.2832 1.06057 15.2832 1.56643C15.2832 1.93557 15.2422 2.20901 15.2012 2.27737C15.1602 2.34573 14.873 2.48245 14.5996 2.60549C13.7793 2.94729 13.3008 3.38479 12.9727 4.09573C12.6992 4.66995 12.6582 5.61331 12.8906 6.2012C13.1914 6.99417 14.0254 7.66409 15.4336 8.21096C16.5547 8.66214 16.9785 8.96292 17.1289 9.42776C17.1973 9.63284 17.1973 9.72854 17.0879 9.97464C16.9512 10.3438 16.7051 10.5215 16.1719 10.6582C15.5156 10.8223 14.6816 10.6719 13.3828 10.1387C13.2461 10.0703 13.1367 10.0703 13.0957 10.1114C13.0547 10.1524 12.9316 10.5215 12.8086 10.9453L12.5762 11.711L12.7402 11.8887C12.9453 12.1074 13.6562 12.3672 14.3945 12.5176C14.709 12.5723 14.9961 12.6543 15.0508 12.6953C15.1191 12.75 15.1465 12.9551 15.1465 13.3516C15.1465 14.1446 15.2148 14.1992 16.0078 14.1992C16.8008 14.1992 16.8691 14.1309 16.8691 13.3379C16.8691 13.0098 16.8965 12.6953 16.9375 12.627C16.9785 12.5586 17.2246 12.4219 17.4844 12.3125C19.0156 11.7246 19.8223 10.3164 19.4531 8.85354C19.1523 7.71878 18.3594 6.98049 16.6777 6.32424C15.584 5.88674 15.1055 5.49026 15.1055 5.02542C15.1055 4.73831 15.2832 4.46487 15.543 4.31448C15.9941 4.06839 17.1562 4.13674 18.0039 4.47854C18.4687 4.65628 18.5645 4.68362 18.6465 4.60159C18.7695 4.46487 19.0977 3.38479 19.0977 3.11135C19.0977 2.90628 19.0566 2.87893 18.7012 2.71487C18.4824 2.61917 18.0312 2.48245 17.6895 2.41409C17.3477 2.34573 17.0605 2.25003 17.0195 2.19534C16.9785 2.15432 16.9512 1.88088 16.9512 1.62112C16.9512 0.923854 16.8965 0.882838 16.1445 0.855494C15.7754 0.814479 15.4609 0.841822 15.4062 0.882838Z" fill="#02ACF2"/>
<path d="M28.3809 4.57422C26.9863 4.64258 25.9883 4.72461 25.9062 4.7793C25.7148 4.88867 25.6191 5.06641 25.6191 5.3125C25.6191 5.46289 25.8105 5.69531 26.5898 6.47461L27.5742 7.45898L21.7637 13.2695L15.9531 19.0801L12.4258 15.5527C8.89844 12.0254 8.66602 11.8203 8.21484 11.8203C7.76367 11.8203 7.53125 12.0254 4.08594 15.4707C0.626953 18.916 0.394531 19.1895 0.380859 19.6406C0.380859 20.0645 0.873047 20.7754 1.35156 21.0352C1.59766 21.1582 2.18555 21.1582 2.41797 21.0352C2.52734 20.9805 3.85352 19.6816 5.37109 18.1641C6.88867 16.6465 8.17383 15.3887 8.21484 15.3887C8.25586 15.3887 9.85547 16.9609 11.7695 18.875C15.5703 22.6758 15.5156 22.6348 16.1582 22.5391C16.4863 22.498 16.5 22.4707 22.9805 15.9902C26.5625 12.4219 29.502 9.49609 29.543 9.49609C29.584 9.49609 30.0488 9.93359 30.5684 10.4531C31.6211 11.4922 31.7168 11.5469 32.0723 11.2734C32.1816 11.1914 32.291 11.041 32.332 10.959C32.4141 10.7539 32.6875 5.09375 32.6328 4.86133C32.6191 4.7793 32.5371 4.64258 32.4551 4.57422C32.332 4.45117 32.2227 4.4375 31.5117 4.4375C31.0742 4.45117 29.666 4.50586 28.3809 4.57422Z" fill="#02ACF2"/>
<path d="M27.7109 13.1738L25.8789 15.0059V21.5957V28.1719H28.2031H30.5273V20.2559V12.3262L30.0215 11.834L29.5293 11.3418L27.7109 13.1738Z" fill="#02ACF2"/>
<path d="M22.3789 18.5195L20.0684 20.8301V24.5078V28.1719H22.3926H24.7168V22.1836C24.7168 18.8887 24.7031 16.1953 24.7031 16.1953C24.6895 16.209 23.6504 17.248 22.3789 18.5195Z" fill="#02ACF2"/>
<path d="M8.50195 22.8672V28.1719L10.8125 28.1582L13.123 28.1445L13.1367 25.1641L13.1504 22.1836L10.8262 19.8594L8.50195 17.5352V22.8672Z" fill="#02ACF2"/>
<path d="M5.35742 20.0645C3.93555 21.4863 3.30664 22.0742 3.04688 22.2109L2.67773 22.4023V25.2871V28.1719H5.00195H7.32617V23.1406C7.32617 20.3789 7.32617 18.1094 7.3125 18.1094C7.3125 18.123 6.4375 18.998 5.35742 20.0645Z" fill="#02ACF2"/>
<path d="M18.1543 22.7441C17.3613 23.5508 16.9922 23.7695 16.2813 23.8926C15.7344 23.9746 15.0781 23.8516 14.5723 23.5234L14.2441 23.3184L14.2578 25.7246L14.2715 28.1309L16.582 28.1445L18.8926 28.1582V25.082C18.8926 23.3867 18.8789 22.0059 18.8789 22.0059C18.8789 22.0195 18.5508 22.3477 18.1543 22.7441Z" fill="#02ACF2"/>
</svg>
