<svg width="68" height="74" viewBox="0 0 68 74" fill="none" xmlns="http://www.w3.org/2000/svg">
<path d="M17.6875 0.562529C17.3125 0.812529 13.3437 3.93753 8.87499 7.43753C3.31249 11.7813 0.656238 13.9375 0.593738 14.1563C0.562488 14.3438 0.562488 14.5938 0.624988 14.7188C0.687488 14.8438 4.65624 18 9.43749 21.7188C18.3125 28.6563 18.5937 28.8438 19.0937 28.3438C19.2187 28.2188 19.2812 27.0938 19.2812 24.2188V20.25L24.1562 20.3438C29.6562 20.4375 32.4375 20.6875 36 21.4063C39.5625 22.125 44.6562 23.6875 47.7187 24.9688C57.4687 29.125 63.0937 38.1875 61.0625 46.4063C60.6875 47.9063 59.4687 50.5 58.5 51.75C58.0937 52.2813 57.1562 53.3438 56.4062 54.0625C55.1562 55.2813 55.0312 55.4688 55.0312 55.9375C55.0312 56.625 55.2187 56.9688 55.7812 57.25C56.4375 57.5938 57.1875 57.4375 58.0937 56.7813C61.6875 54.1563 64.4062 50.3438 65.9687 45.5313C68.9062 36.7188 67.1875 26.9375 61.625 20.7188C57.6562 16.25 50.25 12.0938 43.0625 10.2813C38 9.00003 33.9687 8.59378 25 8.43753L19.25 8.34378V4.50003C19.25 0.875029 19.25 0.562529 19 0.343779C18.6562 2.88635e-05 18.4062 0.0312788 17.6875 0.562529Z" fill="#9C9FA2"/>
<path d="M17.0625 36.5625C6.74999 40.2188 6.81249 40.1875 7.43749 40.875C7.59374 41.0625 11.3125 42.4375 17.3125 44.5625L26.9687 47.9688L36.6562 44.5625C42 42.6875 46.4375 41.0938 46.5312 41C46.625 40.9375 46.7187 40.7188 46.7187 40.5313C46.7187 40.3438 46.625 40.1563 46.5312 40.0625C46.3125 39.875 27.6875 33.2813 27.125 33.1875C26.8437 33.1563 23.8125 34.1563 17.0625 36.5625Z" fill="#9C9FA2"/>
<path d="M4.40624 44.0625C4.18749 44.3125 4.15624 45.2813 4.15624 55.0313C4.15624 66.5313 4.15624 66.4063 4.90624 66.875C5.09374 67 9.62499 68.6563 14.9687 70.5313C22.3437 73.125 24.75 73.9375 24.9062 73.8125C25.0937 73.6875 25.125 72.5625 25.125 62.3125V50.9375L15.0312 47.375C9.46874 45.4063 4.87499 43.8125 4.78124 43.8125C4.68749 43.8125 4.53124 43.9063 4.40624 44.0625Z" fill="#9C9FA2"/>
<path d="M38.8437 47.4063L28.75 50.9688L28.7187 62.0625C28.7187 68.1563 28.7187 73.3125 28.75 73.4688C28.7812 73.6563 28.9375 73.8125 29.0937 73.875C29.5312 74 48.8437 67.125 49.3125 66.6563L49.6875 66.2813L49.7187 55.25C49.75 45.3438 49.7187 44.1875 49.5312 44C49.4062 43.875 49.2187 43.7813 49.1562 43.7813C49 43.8125 44.4062 45.4375 38.8437 47.4063Z" fill="#9C9FA2"/>
</svg>
