<svg width="20" height="18" viewBox="0 0 20 18" fill="none" xmlns="http://www.w3.org/2000/svg">
<g clip-path="url(#clip0_124_276)">
<path d="M5.55566 0C4.94108 0 4.44455 0.496528 4.44455 1.11111C4.44455 1.72569 4.94108 2.22222 5.55566 2.22222H7.31608L0.326497 9.21528C-0.10753 9.64931 -0.10753 10.3542 0.326497 10.7882C0.760525 11.2222 1.46539 11.2222 1.89941 10.7882L8.889 3.79514V5.55556C8.889 6.17014 9.38552 6.66667 10.0001 6.66667C10.6147 6.66667 11.1112 6.17014 11.1112 5.55556V1.11111C11.1112 0.496528 10.6147 0 10.0001 0H5.55566ZM20.0001 2.77778C20.0001 2.33575 19.8245 1.91183 19.5119 1.59927C19.1994 1.28671 18.7755 1.11111 18.3334 1.11111C17.8914 1.11111 17.4675 1.28671 17.1549 1.59927C16.8424 1.91183 16.6668 2.33575 16.6668 2.77778C16.6668 3.21981 16.8424 3.64373 17.1549 3.95629C17.4675 4.26885 17.8914 4.44444 18.3334 4.44444C18.7755 4.44444 19.1994 4.26885 19.5119 3.95629C19.8245 3.64373 20.0001 3.21981 20.0001 2.77778ZM15.5557 7.22222C15.5557 7.00335 15.5126 6.78663 15.4288 6.58442C15.345 6.38221 15.2223 6.19848 15.0675 6.04371C14.9127 5.88895 14.729 5.76618 14.5268 5.68242C14.3246 5.59867 14.1079 5.55556 13.889 5.55556C13.6701 5.55556 13.4534 5.59867 13.2512 5.68242C13.049 5.76618 12.8652 5.88895 12.7105 6.04371C12.5557 6.19848 12.433 6.38221 12.3492 6.58442C12.2654 6.78663 12.2223 7.00335 12.2223 7.22222C12.2223 7.44109 12.2654 7.65782 12.3492 7.86003C12.433 8.06224 12.5557 8.24597 12.7105 8.40073C12.8652 8.5555 13.049 8.67826 13.2512 8.76202C13.4534 8.84578 13.6701 8.88889 13.889 8.88889C14.1079 8.88889 14.3246 8.84578 14.5268 8.76202C14.729 8.67826 14.9127 8.5555 15.0675 8.40073C15.2223 8.24597 15.345 8.06224 15.4288 7.86003C15.5126 7.65782 15.5557 7.44109 15.5557 7.22222ZM13.889 13.3333C14.331 13.3333 14.7549 13.1577 15.0675 12.8452C15.3801 12.5326 15.5557 12.1087 15.5557 11.6667C15.5557 11.2246 15.3801 10.8007 15.0675 10.4882C14.7549 10.1756 14.331 10 13.889 10C13.447 10 13.023 10.1756 12.7105 10.4882C12.3979 10.8007 12.2223 11.2246 12.2223 11.6667C12.2223 12.1087 12.3979 12.5326 12.7105 12.8452C13.023 13.1577 13.447 13.3333 13.889 13.3333ZM15.5557 16.1111C15.5557 15.8922 15.5126 15.6755 15.4288 15.4733C15.345 15.2711 15.2223 15.0874 15.0675 14.9326C14.9127 14.7778 14.729 14.6551 14.5268 14.5713C14.3246 14.4876 14.1079 14.4444 13.889 14.4444C13.6701 14.4444 13.4534 14.4876 13.2512 14.5713C13.049 14.6551 12.8652 14.7778 12.7105 14.9326C12.5557 15.0874 12.433 15.2711 12.3492 15.4733C12.2654 15.6755 12.2223 15.8922 12.2223 16.1111C12.2223 16.33 12.2654 16.5467 12.3492 16.7489C12.433 16.9511 12.5557 17.1349 12.7105 17.2896C12.8652 17.4444 13.049 17.5672 13.2512 17.6509C13.4534 17.7347 13.6701 17.7778 13.889 17.7778C14.1079 17.7778 14.3246 17.7347 14.5268 17.6509C14.729 17.5672 14.9127 17.4444 15.0675 17.2896C15.2223 17.1349 15.345 16.9511 15.4288 16.7489C15.5126 16.5467 15.5557 16.33 15.5557 16.1111ZM20.0001 16.1111C20.0001 15.6691 19.8245 15.2452 19.5119 14.9326C19.1994 14.62 18.7755 14.4444 18.3334 14.4444C17.8914 14.4444 17.4675 14.62 17.1549 14.9326C16.8424 15.2452 16.6668 15.6691 16.6668 16.1111C16.6668 16.5531 16.8424 16.9771 17.1549 17.2896C17.4675 17.6022 17.8914 17.7778 18.3334 17.7778C18.7755 17.7778 19.1994 17.6022 19.5119 17.2896C19.8245 16.9771 20.0001 16.5531 20.0001 16.1111ZM9.44455 13.3333C9.88658 13.3333 10.3105 13.1577 10.6231 12.8452C10.9356 12.5326 11.1112 12.1087 11.1112 11.6667C11.1112 11.2246 10.9356 10.8007 10.6231 10.4882C10.3105 10.1756 9.88658 10 9.44455 10C9.00253 10 8.5786 10.1756 8.26604 10.4882C7.95348 10.8007 7.77789 11.2246 7.77789 11.6667C7.77789 12.1087 7.95348 12.5326 8.26604 12.8452C8.5786 13.1577 9.00253 13.3333 9.44455 13.3333ZM11.1112 16.1111C11.1112 15.6691 10.9356 15.2452 10.6231 14.9326C10.3105 14.62 9.88658 14.4444 9.44455 14.4444C9.00253 14.4444 8.5786 14.62 8.26604 14.9326C7.95348 15.2452 7.77789 15.6691 7.77789 16.1111C7.77789 16.5531 7.95348 16.9771 8.26604 17.2896C8.5786 17.6022 9.00253 17.7778 9.44455 17.7778C9.88658 17.7778 10.3105 17.6022 10.6231 17.2896C10.9356 16.9771 11.1112 16.5531 11.1112 16.1111ZM5.00011 17.7778C5.44214 17.7778 5.86606 17.6022 6.17862 17.2896C6.49118 16.9771 6.66678 16.5531 6.66678 16.1111C6.66678 15.6691 6.49118 15.2452 6.17862 14.9326C5.86606 14.62 5.44214 14.4444 5.00011 14.4444C4.55808 14.4444 4.13416 14.62 3.8216 14.9326C3.50904 15.2452 3.33344 15.6691 3.33344 16.1111C3.33344 16.5531 3.50904 16.9771 3.8216 17.2896C4.13416 17.6022 4.55808 17.7778 5.00011 17.7778ZM20.0001 11.6667C20.0001 11.2246 19.8245 10.8007 19.5119 10.4882C19.1994 10.1756 18.7755 10 18.3334 10C17.8914 10 17.4675 10.1756 17.1549 10.4882C16.8424 10.8007 16.6668 11.2246 16.6668 11.6667C16.6668 12.1087 16.8424 12.5326 17.1549 12.8452C17.4675 13.1577 17.8914 13.3333 18.3334 13.3333C18.7755 13.3333 19.1994 13.1577 19.5119 12.8452C19.8245 12.5326 20.0001 12.1087 20.0001 11.6667ZM18.3334 8.88889C18.7755 8.88889 19.1994 8.71329 19.5119 8.40073C19.8245 8.08817 20.0001 7.66425 20.0001 7.22222C20.0001 6.7802 19.8245 6.35627 19.5119 6.04371C19.1994 5.73115 18.7755 5.55556 18.3334 5.55556C17.8914 5.55556 17.4675 5.73115 17.1549 6.04371C16.8424 6.35627 16.6668 6.7802 16.6668 7.22222C16.6668 7.66425 16.8424 8.08817 17.1549 8.40073C17.4675 8.71329 17.8914 8.88889 18.3334 8.88889Z" fill="#EFF0F4"/>
</g>
<defs>
<clipPath id="clip0_124_276">
<rect width="20" height="17.7778" fill="white"/>
</clipPath>
</defs>
</svg>
