<svg width="20" height="14" viewBox="0 0 20 14" fill="none" xmlns="http://www.w3.org/2000/svg">
<path d="M6.6 2C6.6 1.46957 6.38929 0.960859 6.01421 0.585786C5.63914 0.210714 5.13043 0 4.6 0C4.06957 0 3.56086 0.210714 3.18579 0.585786C2.81071 0.960859 2.6 1.46957 2.6 2C2.6 2.53043 2.81071 3.03914 3.18579 3.41421C3.56086 3.78929 4.06957 4 4.6 4C5.13043 4 5.63914 3.78929 6.01421 3.41421C6.38929 3.03914 6.6 2.53043 6.6 2ZM1 7C1 7.55312 1.44687 8 2 8H4.675C4.99063 6.76875 5.88125 5.76562 7.04375 5.29375C6.74062 5.10625 6.38125 5 6 5H3C1.89688 5 1 5.89687 1 7ZM15.425 8H18C18.5531 8 19 7.55312 19 7C19 5.89687 18.1031 5 17 5H14C13.6344 5 13.2906 5.09688 12.9969 5.26875C14.1875 5.73125 15.1031 6.74687 15.425 8ZM12.225 6.075C12.0094 6.025 11.7812 6 11.55 6H8.55C8.28438 6 8.02812 6.03438 7.78438 6.09688C6.82188 6.35 6.04688 7.06875 5.71875 8C5.60938 8.3125 5.54688 8.65 5.54688 9C5.54688 9.55313 5.99375 10 6.54688 10H13.5469C14.1 10 14.5469 9.55313 14.5469 9C14.5469 8.65 14.4875 8.3125 14.375 8C14.0375 7.04063 13.225 6.30625 12.2219 6.075H12.225ZM17.6 2C17.6 1.46957 17.3893 0.960859 17.0142 0.585786C16.6391 0.210714 16.1304 0 15.6 0C15.0696 0 14.5609 0.210714 14.1858 0.585786C13.8107 0.960859 13.6 1.46957 13.6 2C13.6 2.53043 13.8107 3.03914 14.1858 3.41421C14.5609 3.78929 15.0696 4 15.6 4C16.1304 4 16.6391 3.78929 17.0142 3.41421C17.3893 3.03914 17.6 2.53043 17.6 2ZM10.05 5C10.713 5 11.3489 4.73661 11.8178 4.26777C12.2866 3.79893 12.55 3.16304 12.55 2.5C12.55 1.83696 12.2866 1.20107 11.8178 0.732233C11.3489 0.263392 10.713 0 10.05 0C9.38696 0 8.75107 0.263392 8.28223 0.732233C7.81339 1.20107 7.55 1.83696 7.55 2.5C7.55 3.16304 7.81339 3.79893 8.28223 4.26777C8.75107 4.73661 9.38696 5 10.05 5ZM1 12C0.446875 12 0 12.4469 0 13C0 13.5531 0.446875 14 1 14H19C19.5531 14 20 13.5531 20 13C20 12.4469 19.5531 12 19 12H1Z" fill="#EFF0F4"/>
</svg>
