<svg width="75" height="69" viewBox="0 0 75 69" fill="none" xmlns="http://www.w3.org/2000/svg">
<g clip-path="url(#clip0_681_23)">
<path fill-rule="evenodd" clip-rule="evenodd" d="M57.8843 67.2668C58.1156 66.9741 61.7189 65.2909 62.3641 64.9982C62.9362 64.7421 63.0945 64.864 63.7518 64.9494C64.8474 65.0836 67.5256 65.3397 68.2925 65.5349C68.1829 65.791 66.6004 66.7667 66.2717 66.9741C63.9953 68.4011 64.5553 68.3279 62.4249 68.0108C61.6458 67.901 58.1277 67.462 57.8843 67.2668ZM0 67.5473V68.9988H75V68.7182C74.8661 68.2791 75.073 67.6327 74.7565 67.3522C73.9044 66.5838 73.1131 65.7422 72.2488 64.9738C71.981 64.7421 71.6767 64.4249 71.421 64.181C71.1167 63.8761 70.7637 63.9981 69.9724 63.9981C69.4855 63.9981 67.0386 64.0224 66.7952 63.9005C67.0751 63.6687 67.3916 63.6809 67.9151 62.9735C68.9133 61.6197 69.1811 59.4364 68.8646 57.7655C68.6455 56.5824 67.9881 55.8506 67.5012 54.9724C67.0021 54.082 66.5517 53.1063 66.1256 52.1305C65.2735 50.2156 63.7396 46.9225 62.6684 45.1052C62.5345 44.8856 62.4249 44.6783 62.291 44.4587C62.0476 44.0684 62.0719 44.1416 62.1084 43.6293C62.218 42.3365 62.2058 42.7756 61.3293 41.9584C60.9033 41.5559 60.8911 41.4583 60.8546 40.8119C60.7937 40.0069 60.672 39.9215 60.3433 39.2385C60.112 38.7506 59.8807 38.2871 59.6616 37.8358C59.4181 37.3602 59.2112 36.9089 58.9799 36.421C58.2738 34.9452 58.006 33.1766 57.4704 31.6276C57.02 30.347 56.7887 30.5055 54.8896 29.9689C52.7106 29.359 50.495 28.7858 48.2795 28.2003C47.7439 28.054 47.1961 27.9076 46.6604 27.7369C45.1266 27.2978 45.2849 27.1026 44.104 26.0659C43.8484 25.8585 43.2762 25.2243 43.0084 25.0779C43.0328 25.7 43.3006 26.2001 43.3249 27.6515C43.3371 28.5784 43.2762 29.542 43.1789 30.4446C43.0936 31.3227 42.9597 32.1521 42.8867 33.0425C42.8137 33.9572 42.7893 34.9208 42.7528 35.8478L42.4241 44.2026C42.3998 45.1052 42.3146 46.1419 42.3389 47.0444C42.9719 47.1298 48.5108 47.0566 49.6429 47.0566C50.3124 47.0566 51.3959 47.0201 52.0167 47.1176C53.5019 47.3738 53.1488 49.374 53.1245 50.8133C53.1123 51.4475 52.9054 55.2529 52.9906 55.4847C53.0758 55.2895 53.2706 54.3016 53.3314 54.0088C53.514 53.1551 54.0862 49.7156 54.2688 49.3497L54.9992 51.2036C55.2913 51.8256 55.5957 52.3623 55.9122 52.9355C56.3383 53.6795 57.6165 55.5944 57.5312 56.619C56.8739 57.18 54.707 58.0338 53.7332 58.4851C53.514 58.5949 53.3314 58.6802 53.1123 58.7778C52.7715 58.9242 52.7349 58.9974 52.808 59.4242C53.9158 59.7901 54.2566 59.4486 55.5835 60.4488C56.6791 61.266 59.1016 63.9127 57.2756 65.0836C56.7643 65.4129 54.5488 65.8154 54.0131 65.4861C54.6218 65.1202 57.0565 65.6324 56.2652 63.3272C56.0583 62.7418 55.7539 62.2417 55.4252 61.827C55.1453 61.4611 54.6218 60.8757 54.2079 60.6561C54.7801 61.4367 55.7905 62.6564 55.4496 63.8151C55.267 64.4249 54.7314 64.4981 54.1105 64.7055C53.441 64.9372 53.2097 65.2421 52.5523 65.4495C52.5402 66.0227 52.6254 66.9253 52.3941 67.3766C52.0045 68.1084 51.5785 67.962 50.8602 67.962L29.5204 67.9986C28.0961 67.9986 26.6718 67.962 25.2475 67.962C24.7728 67.962 23.6772 67.9986 23.4215 67.6693C22.9102 67.0351 23.3728 66.0593 22.8129 65.8398L22.192 65.5471C21.912 65.3641 21.8146 65.2177 21.4494 65.0714C20.8529 64.8518 20.013 64.7665 19.9156 64.1078C19.806 63.4126 20.4999 61.9612 20.9016 61.3757C21.0964 61.1074 21.3155 60.9245 21.4494 60.6317C21.1208 60.7903 20.5364 61.4123 20.3173 61.7172C19.6843 62.5954 18.6496 64.7665 20.0495 65.5105C20.293 65.6446 20.646 65.669 20.8895 65.7788C19.5017 65.852 16.787 65.7056 17.0062 63.8029C17.1401 62.7052 19.4287 60.339 20.9138 59.8755C21.6564 59.6438 22.0216 59.7779 22.7276 59.8023C22.7642 58.8388 22.6546 58.9974 21.5468 58.5583C20.3782 58.0948 19.1974 57.7533 18.0652 57.2654C17.2375 56.9117 17.1766 56.7897 17.5174 55.8018C17.7122 55.2529 18.0287 54.6553 18.2965 54.1796C19.0026 52.8989 19.7208 51.5573 20.2443 50.179C20.3051 50.0205 20.3417 49.8863 20.3904 49.7156L20.4877 49.3497C20.5121 49.2521 20.4999 49.2765 20.5364 49.2277C20.9869 50.984 21.3155 53.9966 21.5712 55.9847C21.632 56.436 21.6807 58.1314 21.9607 58.3387C22.192 58.5095 22.4598 58.6558 22.7276 58.7412C22.7398 57.1556 22.2285 48.752 22.5085 48.069C22.825 47.2396 23.4702 47.1176 24.2858 47.081C26.0023 47.0323 31.5533 47.142 32.515 47.0444C32.5394 46.1663 32.4541 45.1905 32.4298 44.3002L32.1133 35.8965C32.0768 34.9818 32.0646 34.0426 31.9794 33.1279C31.7724 30.5909 31.3707 29.1151 31.6264 26.383C31.6629 25.9317 31.7968 25.5292 31.8333 25.0901C31.675 25.1633 31.809 25.0779 31.6507 25.1999C31.602 25.2487 31.5655 25.2731 31.5168 25.3219L30.1777 26.5294C29.4108 27.2246 29.3865 27.3831 28.2665 27.7125C25.0649 28.6394 21.7659 29.3956 18.5887 30.3958C17.8218 30.6397 17.7609 30.6397 17.4809 31.3715C17.1036 32.3473 16.8236 33.5182 16.5436 34.5549C16.2271 35.7746 15.8375 36.482 15.3628 37.4943C14.4376 39.4092 14.2672 39.2995 13.9385 41.2631C13.8776 41.7022 13.8776 41.7388 13.6098 41.9462C13.2081 42.2633 12.6603 42.4584 12.6481 43.0805C12.6238 44.0196 12.989 43.7757 12.4168 44.6783C10.6273 47.5689 9.21522 51.3133 7.68138 54.4479C6.47622 56.9239 5.57539 57.7655 5.86755 60.8269C5.95277 61.6929 6.13537 62.5222 6.53709 63.254C6.69534 63.5346 6.84142 63.6565 6.97533 63.9005L6.74403 63.9737C6.02581 64.0468 5.14933 63.9981 4.41893 63.9981C3.21376 63.9981 3.71287 64.059 2.69031 64.925C1.97208 65.5471 0.730401 67.0107 0 67.5473Z" fill="#EFF0F4"/>
<path fill-rule="evenodd" clip-rule="evenodd" d="M25.0284 48.3739C24.5658 48.4105 24.0424 48.3129 23.7015 48.5569C23.3485 48.8008 23.2633 49.0569 23.2755 49.6424C23.2876 50.6059 23.312 51.6183 23.3607 52.5574C23.4581 54.4967 23.4946 56.436 23.5676 58.3509C23.6407 60.278 23.7137 62.2295 23.7989 64.12C23.8233 64.7543 23.7989 66.4618 24.0546 66.8887C24.2737 67.2546 24.6024 67.2546 25.1502 67.279C25.6371 67.3034 26.1362 67.3034 26.6231 67.3034C34.5967 67.3034 42.5946 67.279 50.5559 67.2912C50.9455 67.2912 51.2863 67.4132 51.6028 66.8399C51.8098 66.474 51.8463 63.1199 51.8585 62.5832L52.2602 50.9718C52.2724 50.5937 52.3576 49.1545 52.175 48.8496C52.0898 48.7154 51.8828 48.5447 51.7733 48.4837C51.4324 48.3129 49.4725 48.3373 48.9369 48.3373C44.9318 48.3373 40.939 48.3251 36.934 48.3251C34.9984 48.3251 32.8681 48.2397 30.9447 48.3251C29.1917 48.4105 26.5744 48.2519 25.0284 48.3739Z" fill="#EFF0F4"/>
<path fill-rule="evenodd" clip-rule="evenodd" d="M42.6189 2.42842C41.852 1.66002 41.7059 1.24533 40.2938 0.867227C40.0503 0.794046 39.4416 0.708668 39.259 0.611093C40.1355 0.598896 40.8537 0.647684 41.5841 1.09897C41.9372 1.31851 42.5337 1.90396 42.6189 2.42842ZM39.9164 0.00125122H38.2243L35.8627 0.501322C34.0732 0.928211 32.8559 1.11116 31.1394 1.47707C29.423 1.83078 30.3116 2.42842 30.5307 2.9163C30.2994 2.86751 30.1047 2.73334 29.9221 2.59918C29.7151 2.45282 29.6299 2.28206 29.3743 2.23327C29.4473 2.85531 30.129 3.18463 30.7255 3.31879C30.482 3.44076 30.0682 3.42856 29.7638 3.50174C29.5569 3.55053 29.216 3.6603 29.0699 3.83106C28.9847 3.94083 29.0699 3.80666 28.9847 3.95303L29.9099 3.92863C29.1673 4.33113 28.3761 4.66044 28.3274 5.63619C28.6317 5.5874 28.583 5.51422 28.8265 5.44104C28.5465 5.91672 28.0961 6.3558 27.9622 7.24617C27.9135 7.64867 27.95 8.05116 28.0961 8.40487C28.1935 8.63661 28.51 9.11229 28.656 9.22206L28.863 8.86835C28.9239 8.6976 28.9604 8.61222 29.0699 8.50245C29.0091 9.11229 28.8386 9.22206 28.9969 9.95387C29.1795 10.7467 29.5082 11.5029 29.7151 12.5884C29.8612 13.369 29.3499 12.9543 29.2525 13.8569C29.1673 14.6984 29.2525 16.1743 29.5204 16.9061C29.8734 17.8452 30.3238 18.3941 31.3829 18.4551C31.602 19.2845 31.5411 20.3212 31.9794 21.2116C32.162 21.5653 32.2959 21.5897 32.2959 22.0409C32.2837 23.0167 32.2715 25.6024 32.5759 26.322C33.1115 27.5539 34.8158 29.0175 35.8992 29.7615C37.5548 30.9202 37.4209 30.7983 38.8573 29.8713C39.7703 29.2859 40.5372 28.5662 41.2798 27.7735C42.8137 26.1513 42.5337 24.7242 42.5215 22.1995C42.5215 21.5409 42.9963 21.1628 43.1423 20.5163C43.2154 20.1626 43.3615 18.7234 43.4588 18.5648C43.5927 18.3697 43.824 18.5039 44.2258 18.2965C45.6013 17.6013 45.8205 14.9058 45.5892 13.6251C45.5161 13.2592 45.4066 13.1616 45.1144 13.0519C45.1022 12.3201 46.3439 10.5149 46.21 9.01472C46.137 8.12435 45.8813 8.50245 46.2587 7.61208C47.123 5.5996 45.5892 3.57493 43.5075 4.11159C43.3006 3.2944 43.6293 2.41623 42.558 1.24533C42.2537 0.916014 41.9372 0.659881 41.4381 0.440337C41.2068 0.330566 40.9876 0.245188 40.7198 0.184204L40.0381 0.0500386C39.9286 0.0134481 39.9651 0.0256449 39.9164 0.00125122Z" fill="#EFF0F4"/>
<path fill-rule="evenodd" clip-rule="evenodd" d="M35.4731 32.2863C35.5462 32.5668 35.9722 33.3352 36.1183 33.6645C36.4227 34.3476 36.3009 34.6769 36.2157 35.4453C35.9114 38.3603 35.7409 40.1045 35.607 43.0805C35.5462 44.3246 35.3879 45.8004 35.4244 47.0445L39.4295 47.0567C39.4782 45.2881 39.3321 43.3122 39.2104 41.5803C39.0399 39.2263 38.906 37.2992 38.626 34.9696C38.4921 33.8109 38.5043 34.2378 39.1738 32.7986C39.4295 32.2619 39.3443 32.2253 38.9791 31.8716C38.553 31.4813 37.7617 30.7495 37.0922 31.0178C36.5079 31.2618 35.8262 31.9082 35.4731 32.2863Z" fill="#FD0000"/>
<path fill-rule="evenodd" clip-rule="evenodd" d="M57.8843 67.2668C58.1277 67.462 61.6458 67.901 62.4249 68.0108C64.5553 68.3279 63.9953 68.4011 66.2717 66.9741C66.6004 66.7667 68.1829 65.791 68.2925 65.5349C67.5256 65.3397 64.8474 65.0836 63.7518 64.9494C63.0945 64.864 62.9362 64.7421 62.3641 64.9982C61.7189 65.2909 58.1156 66.9741 57.8843 67.2668Z" fill="white"/>
<path fill-rule="evenodd" clip-rule="evenodd" d="M42.6189 2.42841C42.5337 1.90394 41.9372 1.3185 41.5841 1.09895C40.8537 0.64767 40.1355 0.598882 39.259 0.611079C39.4416 0.708654 40.0503 0.794032 40.2938 0.867213C41.7059 1.24531 41.852 1.66001 42.6189 2.42841Z" fill="#FAFAFA"/>
</g>
<defs>
<clipPath id="clip0_681_23">
<rect width="75" height="69" fill="white"/>
</clipPath>
</defs>
</svg>
