<svg width="28" height="26" viewBox="0 0 28 26" fill="none" xmlns="http://www.w3.org/2000/svg">
<path d="M14.543 18.8438C14.0859 18.4102 13.5703 18.082 12.9961 17.8711L11.7891 13.1367L26.1211 9.08203L27.6562 15.1406L14.543 18.8438ZM9.98438 6.01172L19.5352 3.31641L21.0703 9.375L11.5195 12.0703L9.98438 6.01172ZM10.4062 17.7773C10.1367 17.8477 9.89062 17.9531 9.65625 18.082L5.4375 1.48828H3.85547C3.70313 1.83984 3.36328 2.08594 2.96484 2.08594H0.996094C0.457031 2.08594 0 1.61719 0 1.04297C0 0.46875 0.445313 0 0.996094 0H2.97656C3.30469 0 3.58594 0.1875 3.76172 0.445312H6.79688V0.492187L6.84375 0.480469L11.2031 17.6367C10.9336 17.6602 10.6758 17.707 10.4062 17.7773ZM10.6641 18.7852C12.5039 18.2695 14.4141 19.418 14.9062 21.375C15.3984 23.332 14.3086 25.3359 12.457 25.8516C10.6172 26.3789 8.70703 25.2188 8.21484 23.2734C7.72266 21.3164 8.8125 19.3125 10.6641 18.7852ZM10.1367 22.7813C10.3477 23.625 11.1562 24.1172 11.9531 23.8945C12.7383 23.6719 13.2188 22.8047 13.0078 21.9727C12.7969 21.1289 11.9883 20.6367 11.1914 20.8711C10.3945 21.0938 9.92578 21.9492 10.1367 22.7813ZM27.5273 18.6797L15.9844 21.9375C15.9609 21.6562 15.9258 21.375 15.8555 21.0938C15.7852 20.8125 15.6797 20.5547 15.5625 20.2969L27.0469 17.0508L27.5273 18.6797Z" fill="#02ACF2"/>
</svg>
