<svg width="20" height="17" viewBox="0 0 20 17" fill="none" xmlns="http://www.w3.org/2000/svg">
<path d="M5.94278 0.245433C6.32946 0.593055 6.36071 1.18284 6.01308 1.56952L3.20086 4.69422C3.029 4.8856 2.78684 4.99887 2.52905 5.00278C2.27126 5.00669 2.02519 4.90904 1.84162 4.72937L0.275364 3.16702C-0.0878821 2.79987 -0.0878821 2.20618 0.275364 1.83903C0.638609 1.47188 1.23621 1.47188 1.59945 1.83903L2.46265 2.70222L4.61478 0.311832C4.96241 -0.0748487 5.55219 -0.106096 5.93887 0.241527L5.94278 0.245433ZM5.94278 6.49482C6.32946 6.84244 6.36071 7.43223 6.01308 7.81891L3.20086 10.9436C3.029 11.135 2.78684 11.2483 2.52905 11.2522C2.27126 11.2561 2.02519 11.1584 1.84162 10.9788L0.275364 9.41641C-0.0917879 9.04926 -0.0917879 8.45557 0.275364 8.09232C0.642515 7.72908 1.23621 7.72517 1.59945 8.09232L2.46265 8.95552L4.61478 6.56513C4.96241 6.17845 5.55219 6.1472 5.93887 6.49482H5.94278ZM8.7511 2.50302C8.7511 1.81169 9.30964 1.25315 10.001 1.25315H18.7501C19.4415 1.25315 20 1.81169 20 2.50302C20 3.19436 19.4415 3.7529 18.7501 3.7529H10.001C9.30964 3.7529 8.7511 3.19436 8.7511 2.50302ZM8.7511 8.75241C8.7511 8.06107 9.30964 7.50254 10.001 7.50254H18.7501C19.4415 7.50254 20 8.06107 20 8.75241C20 9.44375 19.4415 10.0023 18.7501 10.0023H10.001C9.30964 10.0023 8.7511 9.44375 8.7511 8.75241ZM6.25134 15.0018C6.25134 14.3105 6.80988 13.7519 7.50122 13.7519H18.7501C19.4415 13.7519 20 14.3105 20 15.0018C20 15.6931 19.4415 16.2517 18.7501 16.2517H7.50122C6.80988 16.2517 6.25134 15.6931 6.25134 15.0018ZM1.87677 13.127C2.374 13.127 2.85087 13.3245 3.20247 13.6761C3.55406 14.0277 3.75159 14.5046 3.75159 15.0018C3.75159 15.499 3.55406 15.9759 3.20247 16.3275C2.85087 16.6791 2.374 16.8766 1.87677 16.8766C1.37954 16.8766 0.90267 16.6791 0.551074 16.3275C0.199478 15.9759 0.00195292 15.499 0.00195292 15.0018C0.00195292 14.5046 0.199478 14.0277 0.551074 13.6761C0.90267 13.3245 1.37954 13.127 1.87677 13.127Z" fill="#EFF0F4"/>
</svg>
