<svg width="22" height="22" viewBox="0 0 22 22" fill="none" xmlns="http://www.w3.org/2000/svg">
<path d="M10.3898 4.92427C10.3297 4.93286 10.1148 4.95864 9.9 4.98442C7.45937 5.27661 4.66641 6.87505 2.26875 9.35864C1.71875 9.92583 1.01406 10.7422 0.910938 10.9227C0.885156 10.9743 0.859375 11.1032 0.859375 11.2149C0.859375 11.3954 0.876563 11.4469 1.08281 11.679C1.42656 12.1 2.69844 13.3547 3.23125 13.793C5.40547 15.5891 7.40781 16.5946 9.56484 16.9641C11.9539 17.3766 14.4289 16.7493 17.0414 15.0821C18.1242 14.3946 19.5422 13.1915 20.4617 12.1774C21.1063 11.4727 21.1578 11.3954 21.132 11.1547C21.1234 10.9829 21.0719 10.8969 20.7969 10.5618C19.4047 8.84302 17.5484 7.26177 15.7953 6.28208C14.2055 5.38833 12.7359 4.95864 11.1719 4.92427C10.8023 4.90708 10.45 4.90708 10.3898 4.92427ZM11.6961 5.99849C13.9219 6.23911 16.3109 7.52817 18.5539 9.6938C19.1039 10.2266 19.9203 11.1204 19.9203 11.1805C19.9203 11.2407 18.7773 12.3665 18.2875 12.7961C16.3367 14.4977 14.2312 15.5805 12.2375 15.9243C9.75391 16.354 6.95234 15.4086 4.24531 13.2344C3.62656 12.7446 2.71562 11.9024 2.34609 11.4899L2.05391 11.1633L2.40625 10.768C2.84453 10.2696 3.82422 9.31567 4.28828 8.91177C6.80625 6.77192 9.39297 5.74927 11.6961 5.99849Z" fill="#EFF0F4"/>
<path d="M10.2522 6.27346C7.60537 6.70314 5.86084 9.27267 6.38506 11.9453C6.72881 13.6985 8.08662 15.1336 9.81397 15.5977C10.1921 15.7008 10.3124 15.7094 10.9827 15.7094C11.653 15.7094 11.7647 15.7008 12.1343 15.5977C13.4749 15.2367 14.5663 14.343 15.1765 13.0969C16.5171 10.3555 15.0304 7.09846 12.0913 6.3508C11.5671 6.2133 10.7851 6.18752 10.2522 6.27346ZM11.3265 9.53908C11.5929 9.65939 11.8937 9.94299 12.0312 10.2094C12.1343 10.3985 12.1429 10.4672 12.1429 10.8453C12.1429 11.2063 12.1343 11.2922 12.0483 11.4469C11.6272 12.2375 10.7249 12.4867 9.99444 12.0055C9.57334 11.7219 9.30694 11.1031 9.40147 10.6219C9.51319 10.0461 9.87412 9.64221 10.4241 9.46174C10.6132 9.41017 11.1116 9.45314 11.3265 9.53908Z" fill="#EFF0F4"/>
</svg>
