<svg width="75" height="75" viewBox="0 0 75 75" fill="none" xmlns="http://www.w3.org/2000/svg">
<path d="M48.75 3.16405C50.1855 3.54491 51.2695 4.18944 52.3535 5.27343C53.877 6.76757 54.6094 8.61327 54.6094 10.7519C54.6094 15.0879 51.123 18.6035 46.7871 18.6035C43.2422 18.6035 39.9902 16.0254 39.1699 12.5976C39.082 12.2461 38.9941 11.3672 38.9941 10.6933C38.9941 7.76366 40.6348 5.09765 43.2715 3.80858C45.0586 2.92968 46.9629 2.6953 48.75 3.16405Z" fill="#EFF0F4"/>
<path d="M50.4199 26.4844L54.6387 31.6992H59.0039H63.3691V35.0098V38.3203H57.5977H51.8262L49.248 35.5371C47.8418 34.0137 46.5234 32.5781 46.3184 32.3438C46.1133 32.1094 45.9082 31.9629 45.8496 31.9922C45.7617 32.1094 41.4844 42.3633 41.4844 42.4805C41.4844 42.5391 44.6191 49.2188 48.457 57.3047L55.4004 72.0117L51.0352 72.041C48.6328 72.041 46.6113 72.041 46.5234 72.0117C46.4648 71.9824 43.7109 66.1816 40.459 59.1211C37.207 52.0606 34.5117 46.2598 34.4531 46.2598C34.3945 46.2598 33.9551 49.7168 33.4277 53.9648L32.4902 61.6699H22.0605H11.6016V58.3594V55.0781H18.8672H26.1328L26.9531 47.2559L27.7441 39.4629L30.0293 33.9258C31.2891 30.8789 32.3437 28.3008 32.373 28.2129C32.4316 28.0957 31.7871 28.0371 29.3555 28.0371H26.25L23.8184 32.4023L21.416 36.7676L18.6328 35.5078C17.1094 34.8047 15.8496 34.248 15.8203 34.248C15.6445 34.248 16.2305 33.1934 19.4531 27.627L23.1445 21.2695H34.6582H46.2012L50.4199 26.4844Z" fill="#EFF0F4"/>
</svg>
