<svg width="71" height="71" viewBox="0 0 71 71" fill="none" xmlns="http://www.w3.org/2000/svg">
<path d="M0.929688 57.1211H21.3789L22.668 55.2461H2.83398V2.83398L34.6504 2.89258L34.709 11.2129L43.0293 11.2715L43.0879 16.4277L44.0254 16.3984L44.9629 16.3398V10.5977L35.2949 0.929688H0.929688V57.1211ZM38.752 7.19922L40.832 9.2793H36.584V7.19922C36.584 6.05664 36.584 5.11914 36.6133 5.11914C36.6426 5.11914 37.5801 6.05664 38.752 7.19922Z" fill="#EFF0F4"/>
<path d="M7.96094 20.3828H13.6445V14.6992H7.96094V20.3828Z" fill="#EFF0F4"/>
<path d="M16.8672 18.4785H36.9648V16.6035H16.8672V18.4785Z" fill="#EFF0F4"/>
<path d="M43.0293 18.3613C38.8398 19.0352 36.2031 21.1445 34.9434 24.8066L34.5039 26.125L34.3867 32.6875H34.0645C33.2441 32.6875 32.7168 33.8594 32.834 35.4414C32.9512 37.1406 33.8594 38.8984 35.5293 40.6855C36.3203 41.5352 36.6133 41.9746 36.7891 42.5312C37.1406 43.6445 37.6973 44.7871 38.2539 45.6367C38.6934 46.2813 38.752 46.4277 38.752 47.2773V48.1855L38.166 48.5957C37.4629 49.0938 36.584 50.002 36.584 50.2949C36.584 50.6172 34.8262 51.4082 29.3477 53.6348C24.9238 55.4512 24.4844 55.7148 23.4297 57.4434C21.877 59.9043 20.7051 64.3281 20.4414 68.5762L20.3535 70.0703H70.0703V69.4258C70.0703 69.0742 69.9824 68.0195 69.8652 67.0527C69.2793 61.9258 67.7266 57.6484 65.8516 55.9785C65.207 55.3926 64.3574 54.9824 60.3145 53.3418C55.4512 51.3496 53.9863 50.6465 53.8398 50.2363C53.6641 49.7969 52.9902 49.0938 52.2871 48.5957L51.7012 48.1855V47.2773C51.7012 46.4277 51.7305 46.2813 52.1992 45.6367C52.7559 44.8164 53.3125 43.6445 53.6641 42.5312C53.8398 41.9746 54.1328 41.5645 54.7188 40.9199C56.1543 39.3965 56.9746 38.1074 57.4141 36.6133C57.9707 34.7383 57.4141 32.6875 56.3594 32.6875H56.0078V29.2598C56.0078 25.5684 55.8906 24.7773 55.3047 23.9863C55.1289 23.752 54.8945 23.2539 54.7773 22.9023C54.4258 21.5547 53.1953 20.207 51.7305 19.4746C51.0273 19.123 49.6211 18.6836 48.625 18.4785C47.5996 18.2734 43.9961 18.2148 43.0293 18.3613ZM51.1445 27.0332C51.584 27.2676 52.2578 28.1758 52.7266 29.1719C53.0195 29.8164 53.0781 30.0508 53.0781 31.5449V33.2148L53.8984 33.6836V37.6094L54.748 36.0273C55.2168 35.1484 55.627 34.4746 55.6855 34.5332C55.8613 34.709 55.8027 35.5879 55.5684 36.291C55.2754 37.2285 54.2207 38.8106 53.1367 39.9238C52.3164 40.7441 52.1699 40.9492 51.9648 41.7402C51.1445 44.6113 48.9766 46.9844 46.6035 47.541C45.3145 47.8633 43.8203 47.6582 42.4727 47.0137C42.1211 46.8379 41.3887 46.2812 40.8906 45.7539C39.8359 44.6992 38.9863 43.2344 38.5762 41.7695C38.3711 41.0078 38.2246 40.7734 37.4043 39.9531C36.3203 38.8398 35.2363 37.2578 34.9727 36.3203C34.7676 35.6172 34.709 34.709 34.8555 34.5625C34.8848 34.5039 35.3242 35.1777 35.793 36.0566L36.6426 37.6387V33.7129L37.0527 33.4785C37.4629 33.2441 37.4629 33.2441 37.4629 32.1016C37.4629 31.457 37.5215 30.5195 37.6094 30.0215L37.7852 29.084L38.3418 29.4648C39.7188 30.4023 42.0332 31.0176 44.4941 31.1641C47.4531 31.3398 48.6836 30.6367 49.5625 28.3223C50.0312 26.916 50.3828 26.6523 51.1445 27.0332ZM41.5938 48.7422C43.8496 49.7969 46.5742 49.7969 48.8301 48.7422C49.3281 48.5078 49.7383 48.3613 49.7676 48.3906C49.9434 48.5664 49.4746 50.6465 49.123 51.4082C47.3066 55.3047 42.3848 54.9238 41.0078 50.793C40.7441 49.9434 40.4805 48.332 40.627 48.332C40.6855 48.332 41.125 48.5078 41.5938 48.7422ZM36.7598 53.752C36.877 55.041 37.4629 59.4062 37.6094 59.7285C37.668 59.9043 37.8438 59.7285 38.3418 59.1133C39.543 57.5312 40.8613 56.4473 42.2969 55.8906C42.9414 55.627 43.0293 55.6269 43.8203 55.832C44.875 56.0957 45.7539 56.0957 46.7207 55.832C47.4238 55.6269 47.5117 55.6562 48.1855 55.8906C49.5918 56.4473 51.3496 57.9414 52.3164 59.3769C52.6094 59.8164 52.7266 59.9043 52.8145 59.7578C52.9609 59.5234 53.5762 55.2754 53.6934 53.752C53.752 53.1367 53.8398 52.6387 53.8691 52.6387C53.8984 52.6387 54.4551 52.8438 55.041 53.1367C55.627 53.4004 57.6484 54.25 59.5234 55.041C64.7969 57.209 64.8848 57.2676 65.9102 59.2598C66.8477 61.1348 67.8145 64.709 68.0195 67.1992L68.1074 68.1953H22.4043L22.4922 67.1992C22.8145 63.625 24.2793 59.1133 25.5977 57.6777C26.1543 57.0625 26.623 56.8281 31.0469 55.0117C32.9512 54.25 34.9141 53.4004 35.4414 53.1367C35.9688 52.873 36.4668 52.668 36.5547 52.668C36.6133 52.6387 36.7012 53.0781 36.7598 53.752Z" fill="#EFF0F4"/>
<path d="M7.96094 29.2891H13.6445V23.6055H7.96094V29.2891Z" fill="#EFF0F4"/>
<path d="M16.8672 27.3848H32.5117L32.5703 26.9453C32.5996 26.7109 32.6582 26.2715 32.7168 26.0078L32.7754 25.5098H16.8672V27.3848Z" fill="#EFF0F4"/>
<path d="M7.96094 38.1953H13.6445V32.5117H7.96094V38.1953Z" fill="#EFF0F4"/>
<path d="M16.8672 35.3535V36.291H23.957C30.373 36.291 31.0469 36.2617 30.9883 36.0859C30.959 35.9688 30.9004 35.5586 30.9004 35.1484V34.416H16.8379V35.3535H16.8672Z" fill="#EFF0F4"/>
<path d="M7.96094 47.1309H13.6445V41.4473H7.96094V47.1309Z" fill="#EFF0F4"/>
<path d="M16.8672 45.2266H35.8809L35.5 44.4355C35.2949 44.0254 35.1191 43.5859 35.1191 43.498C35.1191 43.3809 33.2148 43.3223 26.0078 43.3223H16.8672V45.2266Z" fill="#EFF0F4"/>
</svg>
