<svg width="68" height="36" viewBox="0 0 68 36" fill="none" xmlns="http://www.w3.org/2000/svg">
<path d="M32.0117 0.214109C30.7324 0.555264 29.6805 1.20914 28.3443 2.51691C26.6101 4.19425 25.8994 5.90003 26.0131 8.03225C26.0415 8.71456 26.1268 9.36844 26.1552 9.53902C26.2121 9.73803 26.1552 9.85175 25.8425 10.0223C25.2739 10.3351 25.2171 10.9036 25.5582 12.2967C25.8425 13.5476 26.3542 14.6563 26.7238 14.9406C26.866 15.0259 27.065 15.5377 27.2071 16.0494C27.9463 18.9777 29.8227 20.854 32.5235 21.3373C34.343 21.65 36.4183 21.0246 37.6977 19.7168C38.4368 18.9777 39.1476 17.6415 39.5172 16.3337C39.6877 15.6798 39.8015 15.4524 40.0005 15.4524C40.5975 15.4524 41.4788 13.5192 41.6778 11.7565C41.7631 11.1311 41.7347 10.9605 41.4788 10.6193C41.1945 10.2213 41.1945 10.1645 41.3367 9.25472C41.5641 7.8901 41.5357 5.78631 41.2798 4.87656C40.9671 3.82467 40.3985 3.11393 39.6593 2.8012C39.3181 2.65905 38.977 2.40319 38.8917 2.23261C38.6643 1.80617 37.5839 0.953279 36.8448 0.612124C35.4802 -0.0133278 33.4616 -0.183906 32.0117 0.214109Z" fill="#EFF0F4"/>
<path d="M11.6561 5.75789C10.6895 6.04218 9.55235 6.78135 8.55731 7.77639C7.56227 8.77142 6.99368 9.76646 6.73781 10.9321C6.59567 11.6144 6.6241 13.0643 6.8231 13.6897C6.87996 13.9456 6.85153 14.0025 6.6241 14.0025C6.19765 14.0025 6.02707 14.4573 6.11236 15.2534C6.22608 16.2484 6.70938 17.5846 7.1074 18.0679C7.30641 18.2953 7.53384 18.7786 7.61913 19.1767C8.10244 21.0814 9.15433 22.4176 10.6895 23.1568C11.514 23.5548 11.6846 23.5833 12.907 23.5833C14.1579 23.5833 14.3001 23.5548 15.1245 23.1568C16.5176 22.4745 17.5126 21.1667 17.9391 19.4325C18.0244 19.0345 18.1665 18.7218 18.2518 18.7218C18.593 18.6934 18.9057 18.3806 19.1331 17.8405C19.7586 16.419 19.9576 14.9407 19.5596 14.5426C19.389 14.3436 19.3606 14.2015 19.5311 13.3486C19.6164 12.8084 19.6733 11.8134 19.6164 11.1595C19.5596 9.59588 19.0478 8.54399 18.2234 8.11754C17.9391 7.97539 17.4558 7.60581 17.1715 7.29308C16.8872 6.95193 16.2902 6.52549 15.6931 6.24119C14.8118 5.81475 14.5844 5.75788 13.4756 5.70102C12.7365 5.61574 12.0542 5.6726 11.6561 5.75789Z" fill="#EFF0F4"/>
<path d="M52.5379 5.90004C50.3204 6.69607 48.3588 8.743 47.8755 10.9321C47.7049 11.6144 47.7617 13.0643 47.9323 13.6897C47.9892 13.9172 47.9608 14.0025 47.6765 14.0593C47.4206 14.1162 47.3069 14.2583 47.25 14.5995C47.1079 15.424 47.7902 17.6699 48.3303 18.0963C48.5293 18.2669 48.6999 18.6081 48.7852 19.0914C49.1832 20.9109 50.3204 22.3892 51.8556 23.1C52.6801 23.498 52.8507 23.5264 54.0731 23.5264C55.2387 23.5264 55.4946 23.498 56.1769 23.1568C57.2572 22.6735 58.0817 21.8491 58.6219 20.7403C58.8777 20.2286 59.0767 19.7453 59.0767 19.66C59.0767 19.2904 59.361 18.5228 59.4748 18.5796C59.56 18.6081 59.7306 18.5228 59.9012 18.3522C60.6404 17.613 61.209 14.9691 60.7541 14.4858C60.5551 14.2868 60.5266 14.1446 60.6688 13.4907C60.8678 12.4104 60.8678 10.4203 60.6404 9.65275C60.4129 8.85672 59.9012 8.20283 59.3326 7.9754C59.1052 7.86168 58.6787 7.54895 58.366 7.2078C58.0533 6.86664 57.4278 6.4402 56.8592 6.12747C55.9779 5.70103 55.7505 5.64417 54.6417 5.58731C53.5898 5.58731 53.2487 5.64417 52.5379 5.90004Z" fill="#EFF0F4"/>
<path d="M26.8091 21.9343C26.1268 22.3324 24.9043 22.9294 24.0799 23.2705C23.2554 23.6117 22.0898 24.1518 21.4644 24.4361L20.3556 24.9763L18.9625 24.2371C17.5979 23.498 17.5695 23.498 17.4558 23.8107C17.3989 23.9813 16.7735 25.8861 16.0912 28.0751C15.4088 30.2642 14.8118 32.0268 14.7834 32.0268C14.755 32.0268 14.4707 31.373 14.1864 30.5769L13.6746 29.127L14.1011 28.3879C15.1814 26.5115 14.755 25.5165 12.907 25.5165C12.2532 25.5165 12.0257 25.5733 11.713 25.8576C11.1444 26.3409 11.1444 26.9379 11.7983 28.1889L12.2816 29.1555L11.7699 30.6622C11.4856 31.4867 11.2297 32.1406 11.2013 32.1121C11.1728 32.1121 10.5474 30.1505 9.80822 27.8193C9.06905 25.488 8.44359 23.5548 8.44359 23.5264C8.44359 23.5264 7.56228 23.9528 6.48195 24.4646C5.40163 24.9763 4.037 25.6302 3.41155 25.8576C2.70081 26.1419 2.07536 26.5115 1.67735 26.8527C0.483304 27.933 0.199007 29.0417 0.0852889 32.7092L0 35.3531H67.0939L67.0086 32.8513C66.8949 29.3829 66.5821 28.1889 65.5871 27.0517C65.1607 26.5399 64.5352 26.1988 62.1756 25.2322C61.2942 24.8626 60.1571 24.3224 59.6453 24.0097C59.0767 23.697 58.6787 23.5264 58.6219 23.6117C58.5934 23.697 57.9395 25.6302 57.2288 27.9614C56.4896 30.2642 55.8642 32.0837 55.8073 31.9984C55.7505 31.9131 55.4946 31.2308 55.2387 30.4632L54.7554 29.0986L55.1534 28.4731C55.3809 28.132 55.6083 27.5634 55.722 27.1938C55.8642 26.6537 55.8642 26.5115 55.6936 26.1988C55.4377 25.7155 54.9829 25.5165 54.1015 25.5165C53.2202 25.5165 52.7938 25.7155 52.5095 26.1988C52.3389 26.5115 52.3105 26.6537 52.4811 27.1938C52.5663 27.535 52.8222 28.1036 53.0497 28.4731L53.4477 29.0986L52.9644 30.4632C52.7085 31.2024 52.4526 31.8847 52.3958 31.9416C52.2821 32.0837 52.3105 32.169 50.8037 27.3075C50.2067 25.4027 49.695 23.7538 49.6665 23.6685C49.6381 23.5548 49.1832 23.7254 48.1882 24.2656L46.7667 25.0047L46.1413 24.6636C45.8001 24.4646 45.0325 24.1518 44.4639 23.896C43.014 23.3274 40.8818 22.3039 39.8583 21.7069C39.4034 21.451 38.977 21.2236 38.977 21.252C38.9486 21.2805 38.2378 23.498 37.3849 26.2272C36.532 28.928 35.7929 31.2593 35.736 31.3445C35.6792 31.4298 35.3664 30.7475 35.0253 29.724L34.3998 27.933L34.9684 26.9664C36.0203 25.1469 35.7644 23.9528 34.2861 23.6401C33.4332 23.4411 32.4382 23.6401 31.9549 24.095C31.6706 24.3509 31.6137 24.5214 31.6137 25.0616C31.6137 25.7155 32.0117 26.7674 32.5519 27.5065L32.8078 27.8761L32.1539 29.724C31.5853 31.3445 31.5 31.5151 31.3579 31.2308C31.301 31.0318 30.5618 28.729 29.7089 26.0566C28.8561 23.3842 28.1737 21.2236 28.1169 21.2236C28.06 21.2236 27.4914 21.5648 26.8091 21.9343Z" fill="#EFF0F4"/>
</svg>
